<svg width="302" height="239" viewBox="0 0 302 239" fill="none" xmlns="http://www.w3.org/2000/svg">
<path d="M206.353 224.455C205.009 226.185 202.903 228.608 198.927 230.532C187.207 236.236 164.529 240.555 148.999 238.464C147.904 238.312 146.879 238.174 145.895 238.035C128.204 235.474 117.675 230.255 125.17 220.247C128.675 215.581 148.818 209.878 150.675 207.026C152.933 203.566 177.953 198.762 199.107 204.784C208.625 207.511 211.825 217.423 206.353 224.455Z" fill="#FFEBB7"/>
<path d="M268.004 175.478C266.258 179.298 264.291 182.939 262.116 186.345C258.473 192.062 254.289 197.087 249.703 201.032C249.135 201.531 248.553 202.001 247.958 202.472C247.223 203.053 246.475 203.607 245.727 204.133C245.575 204.244 245.409 204.355 245.242 204.465C229.809 214.876 222.301 212.758 216.745 207.096C214.515 204.825 212.603 201.988 210.636 199.15C208.101 195.509 205.441 191.882 201.866 189.473C201.686 189.349 201.506 189.224 201.312 189.113C187.459 180.544 174.187 188.338 166.83 178.592C159.474 168.833 168.354 138.253 168.354 138.253C168.354 138.253 158.587 116.284 187.736 117.059C216.884 117.834 228.105 78.5335 257.059 96.5436C281.206 111.55 280.611 147.86 268.004 175.478Z" fill="#FFEBB7"/>
<mask id="mask0_3362_40250" style="mask-type:alpha" maskUnits="userSpaceOnUse" x="163" y="91" width="114" height="121">
<path d="M268.004 175.478C266.258 179.298 264.291 182.939 262.116 186.345C258.473 192.062 254.289 197.087 249.703 201.032C249.135 201.531 248.553 202.001 247.958 202.472C247.223 203.053 246.475 203.607 245.727 204.133C245.575 204.244 245.409 204.355 245.242 204.465C229.809 214.876 222.301 212.758 216.745 207.096C214.515 204.825 212.603 201.988 210.636 199.15C208.101 195.509 205.441 191.882 201.866 189.473C201.686 189.349 201.506 189.224 201.312 189.113C187.459 180.544 174.187 188.338 166.83 178.592C159.474 168.833 168.354 138.253 168.354 138.253C168.354 138.253 158.587 116.284 187.736 117.059C216.884 117.834 228.105 78.5335 257.059 96.5436C281.206 111.55 280.611 147.86 268.004 175.478Z" fill="#FFEBB7"/>
</mask>
<g mask="url(#mask0_3362_40250)">
<path d="M257.733 168.315C257.733 168.315 261.148 171.517 263.429 201.742L267.173 201.189C267.173 201.189 269.428 174.31 265.855 163.769C262.282 153.215 257.733 168.315 257.733 168.315Z" fill="#FFD9BD"/>
<path d="M231.969 144.005C231.969 144.005 231.494 144.255 230.69 144.65C227.262 146.363 217.82 150.909 213.878 151.107C208.999 151.344 195.853 133.056 195.853 133.056L191.713 135.533C191.713 135.533 202.921 159.144 213.878 158.656C224.849 158.169 234.197 154.743 234.197 154.743L231.969 144.005Z" fill="#FFD9BD"/>
<path d="M256.758 165.114C256.758 165.114 256.797 176.761 249.585 190.938L246.236 178.092C246.236 178.092 245.103 165.509 245.524 164.639C245.946 163.756 248.676 156.997 249.48 156.47C250.284 155.943 253.027 154.744 253.027 154.744L256.758 165.114Z" fill="#FFBE17"/>
<path d="M253.526 181.872C253.526 181.872 254.964 193.085 254.937 198.711C254.924 202.611 253.223 268.886 253.223 268.886L243.716 268.425L237.756 207.842L227.893 268.886H217.41L228.341 176.773L253.526 181.872Z" fill="black"/>
<path d="M243.534 141.951C243.534 141.951 239.947 141.226 236.848 141.239C234.607 141.253 223.227 148.13 221.685 147.458L224.77 159.224L231.772 157.235L255.783 166.129L258.368 171.979C258.368 171.979 269.932 169.317 269.8 169.054C269.655 168.777 264.288 150.963 261.545 148.368C257.458 144.481 243.534 141.951 243.534 141.951Z" fill="#FFBE17"/>
<path d="M232.047 156.142L228.012 178.554C228.012 178.554 248.806 199.767 252.169 190.939C255.544 182.111 251.549 160.99 251.549 160.99L232.047 156.142Z" fill="black"/>
<path d="M241.965 128.772C241.965 128.772 241.609 127.732 241.042 127.969C239.605 128.588 240.488 130.09 241.226 130.564L241.965 128.772Z" fill="#FFD9BD"/>
<path d="M242.554 125.414C242.581 125.322 242.607 125.229 242.634 125.137C243.715 120.947 248.119 118.496 252.312 119.88C255.793 121.026 257.969 124.597 257.375 128.207C257.164 129.551 256.611 130.737 255.833 131.712C254.712 133.24 253.749 134.545 252.8 135.599C251.244 137.338 250.308 139.551 250.11 141.87L249.952 143.702C244.849 144.927 243.385 142.187 243.385 142.187L244.137 138.945C244.229 138.524 243.992 138.102 243.583 137.97C243.583 137.97 243.583 137.97 243.57 137.97C238.084 136.152 241.895 127.904 242.554 125.414Z" fill="#FFD9BD"/>
<path d="M249.082 131.171C249.174 130.802 249.556 130.564 249.939 130.67C250.308 130.762 250.545 131.144 250.44 131.527C250.347 131.896 249.965 132.133 249.583 132.028C249.2 131.935 248.976 131.553 249.082 131.171Z" fill="black"/>
<path d="M243.345 128.403C243.438 128.034 243.82 127.797 244.202 127.902C244.572 127.994 244.809 128.377 244.703 128.759C244.611 129.128 244.229 129.366 243.846 129.26C243.477 129.168 243.253 128.786 243.345 128.403Z" fill="black"/>
<path d="M251.787 130.747C251.853 130.76 251.933 130.76 252.012 130.747C252.236 130.681 252.354 130.457 252.289 130.233C252.091 129.574 251.273 128.428 249.559 128.797C249.335 128.85 249.19 129.061 249.243 129.285C249.296 129.509 249.507 129.654 249.731 129.601C251.141 129.298 251.484 130.418 251.497 130.457C251.537 130.602 251.656 130.708 251.787 130.747Z" fill="black"/>
<path d="M245.696 128.034C245.762 128.047 245.841 128.047 245.92 128.034C246.144 127.968 246.263 127.744 246.197 127.52C245.999 126.862 245.181 125.715 243.467 126.084C243.243 126.137 243.098 126.348 243.151 126.572C243.204 126.796 243.415 126.941 243.639 126.888C245.05 126.585 245.392 127.705 245.406 127.744C245.445 127.902 245.551 128.008 245.696 128.034Z" fill="black"/>
<path d="M257.732 129.565L254.489 133.992L253.223 133.386L254.08 126.812L257.732 129.565Z" fill="#5A3D1A"/>
<path d="M253.064 133.173C253.249 132.962 253.499 132.844 253.763 132.804C254.317 132.725 255.266 132.738 255.715 133.503C256.374 134.636 253.961 136.533 252.484 134.899C252.484 134.899 252.115 134.267 253.064 133.173Z" fill="#FFD9BD"/>
<path d="M244.956 132.727C245.523 133.214 246.195 133.016 246.208 133.003C246.274 132.977 246.314 132.911 246.287 132.845C246.261 132.779 246.195 132.74 246.129 132.766C246.103 132.779 245.351 132.99 244.863 132.239C244.784 132.12 244.745 132.028 244.758 131.962C244.771 131.883 244.903 131.804 245.074 131.686C245.47 131.435 246.129 131.014 246.617 129.788C246.643 129.722 246.617 129.657 246.551 129.63C246.485 129.604 246.419 129.63 246.393 129.696C245.931 130.842 245.338 131.224 244.942 131.475C244.731 131.607 244.56 131.725 244.52 131.896C244.494 132.028 244.534 132.173 244.652 132.358C244.745 132.529 244.85 132.647 244.956 132.727Z" fill="#E8A779"/>
<path d="M247.369 134.677C247.369 134.677 244.508 134.308 242.965 133.03C242.965 133.03 242.847 135.27 244.416 135.863C245.985 136.443 247.369 134.677 247.369 134.677Z" fill="white"/>
<path d="M244.455 122.883C244.455 122.883 243.216 123.344 241.818 127.706C241.818 127.706 243.058 122.791 243.756 122.396C244.442 121.987 244.455 122.883 244.455 122.883Z" fill="#5A3D1A"/>
<path d="M231.969 156.47C231.969 156.47 235.687 144.901 237.652 141.212L240.275 141.449C240.275 141.449 235.503 152.385 234.962 157.234L231.969 156.47Z" fill="black"/>
<path d="M257.497 219.225C257.866 219.225 258.17 218.922 258.17 218.553V210.252H272.568V218.052C272.568 218.421 272.872 218.724 273.241 218.724C273.61 218.724 273.913 218.421 273.913 218.052V209.58C273.913 209.211 273.61 208.908 273.241 208.908H257.484C257.115 208.908 256.811 209.211 256.811 209.58V218.553C256.825 218.922 257.128 219.225 257.497 219.225Z" fill="#060633"/>
<path d="M251.564 160.99C251.564 160.99 253.687 150.173 256.996 145.719L254.148 144.665C254.148 144.665 249.098 154.652 248.307 161.438L251.564 160.99Z" fill="black"/>
<path d="M263.67 201.017C263.67 201.017 262.259 205.484 261.956 206.867C261.652 208.25 260.334 209.37 261.033 209.805C261.731 210.24 263.327 208.026 263.327 208.026C263.327 208.026 263.973 209.924 264.065 210.82C264.157 211.716 264.962 211.887 265.159 211.347C265.397 210.728 265.384 209.858 265.384 209.858C265.384 209.858 265.384 211.637 266.003 211.755C266.61 211.861 266.992 208.949 266.992 208.949C266.992 208.949 267.045 210.899 267.375 211.136C267.704 211.373 268.508 211.597 268.522 210.174C268.535 208.751 268.522 208.514 268.522 208.514C268.522 208.514 268.759 210.293 268.97 210.569C269.181 210.846 269.985 210.227 269.787 208.106C269.59 205.997 268.35 202.743 266.847 200.74L263.67 201.017Z" fill="#FFD9BD"/>
<path d="M252.618 124.991C251.022 125.334 249.242 125.4 247.607 125.308C247.159 125.281 246.697 125.242 246.315 125.004C245.998 124.807 245.774 124.359 246.012 124.095C246.091 124.016 246.183 123.964 246.288 123.924C246.895 123.661 247.541 123.463 248.187 123.344C246.803 123.384 245.418 123.371 244.047 123.318C243.308 123.292 242.491 123.199 241.99 122.646C241.608 122.224 241.515 121.592 241.673 121.039C241.818 120.485 242.188 120.011 242.623 119.642C244.126 118.364 246.288 118.245 248.266 118.351C247.778 117.666 247.449 116.849 247.343 116.005C247.317 115.795 247.304 115.557 247.422 115.386C247.515 115.254 247.66 115.175 247.818 115.123C248.847 114.754 249.967 115.254 250.904 115.821C252.037 116.506 253.132 117.297 254.002 118.311C254.872 119.312 255.505 120.551 255.664 121.869C255.584 121.197 255.519 120.538 255.439 119.866C255.4 119.51 255.387 119.102 255.637 118.851C255.901 118.614 256.336 118.667 256.613 118.891C256.89 119.115 257.022 119.457 257.114 119.8C257.365 120.815 257.233 121.908 256.745 122.83C258.169 122.91 259.461 124.109 259.619 125.531C259.131 125.597 258.63 125.558 258.169 125.426C258.499 126.164 258.71 126.941 258.775 127.745C258.815 128.127 258.815 128.509 258.736 128.878C258.578 129.59 258.063 130.209 257.404 130.512C256.745 130.815 255.94 130.789 255.294 130.446C254.332 129.932 253.857 128.852 253.435 127.85C253.053 126.915 253.013 125.927 252.618 124.991Z" fill="#5A3D1A"/>
<path d="M186.214 133.937C186.346 132.975 188.139 132.395 188.113 131.42C188.271 130.88 188.429 130.34 188.561 129.8C188.64 129.457 188.667 129.128 188.68 128.798C189.629 129.286 191.198 129.932 191.198 129.932C191.198 129.932 187.863 126.914 188.72 126.558C189.577 126.216 192.095 128.271 193.15 129.457C194.204 130.643 197.092 134.569 197.092 134.569L194.824 137.916C192.332 137.942 189.524 136.994 187.507 135.94C187.717 135.426 186.135 134.49 186.214 133.937Z" fill="#FFD9BD"/>
<path d="M187.691 126.269L189.219 126.058L190.439 134.854L188.911 135.065L187.691 126.269Z" fill="#A7C0E8"/>
<path d="M187.478 122.913L187.808 125.297L188.915 125.139L188.586 122.768C189.35 122.913 189.97 123.532 190.089 124.336C190.234 125.35 189.522 126.286 188.506 126.43C187.491 126.575 186.555 125.864 186.41 124.849C186.278 124.032 186.74 123.242 187.478 122.913Z" fill="#A7C0E8"/>
<path d="M189.51 137.564L189.18 135.179L190.287 135.021L190.617 137.393C191.316 137.05 191.738 136.286 191.632 135.469C191.487 134.454 190.551 133.743 189.536 133.888C188.521 134.033 187.809 134.968 187.954 135.983C188.046 136.813 188.705 137.445 189.51 137.564Z" fill="#A7C0E8"/>
<path d="M187.993 128.365C187.993 128.365 191.619 130.592 191.368 131.145C191.118 131.699 187.927 130.605 187.967 130.645C188.006 130.684 191.157 132.358 191.078 133.201C190.999 134.044 187.373 132.621 187.373 132.621C187.373 132.621 190.432 133.978 190.353 134.558C190.274 135.124 187.189 134.149 187.123 134.36C187.044 134.571 189.76 135.217 189.681 135.928C189.615 136.64 185.752 135.875 185.462 135.124C185.172 134.36 185.87 133.912 185.87 133.912C185.87 133.912 185.528 132.582 186.108 132.107C186.108 132.107 186.319 130.249 187.149 130.184C187.149 130.157 186.648 128.602 187.993 128.365Z" fill="#F7C9A7"/>
<path d="M233.46 160.027L249.27 162.794L247.081 175.232L238.536 177.499L231.284 172.465L233.46 160.027Z" fill="#404040"/>
</g>
<path d="M242.914 59.691C241.833 75.6938 229.281 89.537 214.001 98.5767C210.33 100.75 206.506 102.647 202.655 104.225C199.926 105.346 197.169 106.315 194.439 107.104C189.3 108.599 184.243 109.485 179.588 109.693C178.896 109.72 178.217 109.72 177.552 109.693C154.014 108.793 146.644 74.4064 137.944 61.7536C129.022 48.7272 111.816 37.5141 114.573 24.7507C117.815 9.68922 132.68 5.5501 181.722 5.16248C245.864 4.66413 243.717 47.8135 242.914 59.691Z" fill="#FFEBB7"/>
<mask id="mask1_3362_40250" style="mask-type:alpha" maskUnits="userSpaceOnUse" x="114" y="5" width="130" height="105">
<path d="M242.914 59.691C241.833 75.6938 229.281 89.537 214.001 98.5767C210.33 100.75 206.506 102.647 202.655 104.225C199.926 105.346 197.169 106.315 194.439 107.104C189.3 108.599 184.243 109.485 179.588 109.693C178.896 109.72 178.217 109.72 177.552 109.693C154.014 108.793 146.644 74.4064 137.944 61.7536C129.022 48.7272 111.816 37.5141 114.573 24.7507C117.815 9.68922 132.68 5.5501 181.722 5.16248C245.864 4.66413 243.717 47.8135 242.914 59.691Z" fill="#FFEBB7"/>
</mask>
<g mask="url(#mask1_3362_40250)">
<path d="M170.148 57.3793C170.148 57.3793 166.912 55.9118 165.903 55.5624C164.884 55.213 164.165 54.1148 163.775 54.604C163.385 55.0932 164.914 56.4808 164.914 56.4808C164.914 56.4808 162.746 56.7903 162.067 56.7803C161.387 56.7703 161.307 57.1497 161.697 57.3493C162.137 57.5789 163.345 57.8685 163.345 57.8685C163.345 57.8685 162.007 57.7187 161.867 58.1679C161.727 58.6172 163.895 59.1663 163.895 59.1663C163.895 59.1663 162.416 59.0365 162.207 59.2561C161.997 59.4857 161.757 60.0647 162.826 60.2045C163.895 60.3442 164.075 60.3542 164.075 60.3542C164.075 60.3542 163.275 60.4241 163.046 60.5539C162.816 60.6837 162.656 61.3026 164.254 61.3426C165.863 61.3825 168.32 60.9932 169.969 60.0448L170.148 57.3793Z" fill="#FFD9BD"/>
<path d="M187.381 52.3877C187.381 52.3877 183.075 58.1679 180.488 58.5373C177.9 58.9066 169.168 57.3093 169.168 57.3093L168.309 59.895C168.309 59.895 178.69 65.0263 184.464 62.9697C190.229 60.9132 191.697 56.4508 191.697 56.4508L187.381 52.3877Z" fill="#FFD9BD"/>
<path d="M184.327 104.239L183.218 97.3809H188.443L188.682 104.609C188.682 104.619 185.476 105.258 184.327 104.239Z" fill="white"/>
<path d="M188.682 103.8C188.682 103.8 187.024 104.608 184.337 104.249C184.337 104.249 176.814 107.643 177.113 109.929C177.113 109.929 176.784 110.618 180.27 110.399C183.757 110.179 189.162 109.919 189.312 109.83C189.432 109.74 190.741 108.821 188.682 103.8Z" fill="#060633"/>
<path d="M189.293 109.829C189.153 109.909 183.738 110.178 180.251 110.398C176.765 110.618 177.094 109.929 177.094 109.929C177.074 109.779 177.094 109.619 177.134 109.46L189.822 108.352C189.812 109.47 189.373 109.779 189.293 109.829Z" fill="white"/>
<path d="M221.829 100.756L215.955 101.954L216.455 96.9528L223.478 96.4736C223.478 96.4736 223.168 100.008 221.829 100.756Z" fill="white"/>
<path d="M222.84 96.5029C222.84 96.5029 223.07 98.3298 221.841 100.756C221.841 100.756 222.59 108.962 224.838 109.441C224.838 109.441 225.377 109.98 226.316 106.616C227.245 103.261 228.774 98.0603 228.744 97.9006C228.704 97.7309 228.254 96.1935 222.84 96.5029Z" fill="#060633"/>
<path d="M228.732 97.8995C228.762 98.0592 227.243 103.26 226.304 106.615C225.375 109.969 224.826 109.44 224.826 109.44C224.676 109.41 224.536 109.34 224.396 109.25L227.503 96.9111C228.572 97.2905 228.722 97.8096 228.732 97.8995Z" fill="white"/>
<path d="M212.68 52.6965C212.68 52.6965 216.557 60.6331 216.307 72.6826L209.783 65.0256C209.783 65.0256 204.859 56.8195 204.859 56.0808C204.859 55.3421 204.489 49.8314 204.859 49.2025C205.228 48.5735 206.707 46.8564 206.707 46.8564L212.68 52.6965Z" fill="black"/>
<path d="M196.005 41.2567C196.005 41.2567 190.47 45.1301 189.082 47.1567C187.693 49.1833 185.295 53.7056 184.466 54.4443L190.231 60.9034L193.228 57.6789L212.33 53.7156L216.026 56.8503C216.026 56.8503 223.04 51.2198 222.86 51.09C222.68 50.9503 213.129 40.5679 210.402 39.6994C206.335 38.3916 196.005 41.2567 196.005 41.2567Z" fill="black"/>
<path d="M192.859 54.7239L196.246 71.8149C196.246 71.8149 181.48 73.532 180.001 77.9645C178.522 82.3969 182.089 102.563 182.089 102.563H189.592L188.133 84.4834L201.161 82.2772C201.161 82.2772 195.626 99.8673 197.225 102.573C198.823 105.278 220.113 102.573 220.113 102.573V96.3034L209.034 95.4448C209.034 95.4448 217.646 80.1907 217.036 73.0628C216.417 65.9349 207.755 51.6191 207.755 51.6191L192.859 54.7239Z" fill="#FFBE17"/>
<path d="M194.825 56.0803L206.534 52.7959L209.121 62.0003L204.026 66.3529L197.412 65.2847L194.825 56.0803Z" fill="#FFD361"/>
<path d="M217.094 55.9816C217.094 55.9816 220.121 59.6953 220.121 60.9033C220.121 62.1112 213.478 67.8814 209.781 68.6202L210.52 71.076C210.52 71.076 226.026 68.4305 226.515 60.9033C226.515 60.9033 227.245 57.7087 222.08 51.8486L217.094 55.9816Z" fill="#FFD9BD"/>
<path d="M202.79 69.1614L204.039 67.8408L211.677 75.0548L210.428 76.3753L202.79 69.1614Z" fill="#A7C0E8"/>
<path d="M200.1 66.2119L202.178 68.1686L203.087 67.2103L201.029 65.2636C201.838 64.8343 202.867 64.9441 203.577 65.603C204.456 66.4416 204.496 67.8292 203.667 68.7177C202.827 69.5962 201.439 69.6361 200.55 68.8075C199.821 68.1287 199.661 67.0605 200.1 66.2119Z" fill="#A7C0E8"/>
<path d="M212.828 78.2313L210.751 76.2746L211.66 75.3162L213.718 77.2629C214.107 76.4243 213.937 75.4061 213.228 74.7472C212.349 73.9086 210.95 73.9486 210.111 74.837C209.272 75.7156 209.312 77.1132 210.201 77.9518C210.93 78.6206 211.999 78.7105 212.828 78.2313Z" fill="#A7C0E8"/>
<path d="M190.589 32.7909C190.589 32.7909 190 32.192 189.69 32.5514C188.921 33.4498 190.02 34.1786 190.669 34.2585L190.589 32.7909Z" fill="#FFD9BD"/>
<path d="M189.882 30.2951C189.872 30.2252 189.852 30.1553 189.842 30.0754C189.203 26.8609 191.39 23.7362 194.697 23.2969C197.454 22.9276 200.111 24.6446 200.901 27.3101C201.2 28.2985 201.21 29.2868 201 30.2152C200.741 31.6228 200.511 32.8407 200.211 33.869C199.722 35.5661 199.822 37.383 200.451 39.0402L200.951 40.338C197.874 42.8538 195.966 41.4661 195.966 41.4661L195.406 39.0103C195.336 38.6908 195.027 38.4812 194.697 38.5211C194.697 38.5211 194.697 38.5211 194.687 38.5211C190.381 39.1001 190.261 32.2218 189.882 30.2951Z" fill="#FFD9BD"/>
<path d="M196.236 32.0808C196.176 31.7911 196.366 31.5114 196.656 31.4515C196.945 31.3916 197.225 31.5814 197.285 31.8711C197.345 32.1608 197.155 32.4405 196.866 32.5004C196.576 32.5504 196.296 32.3706 196.236 32.0808Z" fill="black"/>
<path d="M191.42 32.0808C191.36 31.7911 191.55 31.5114 191.839 31.4515C192.129 31.3916 192.409 31.5814 192.469 31.8711C192.529 32.1608 192.339 32.4405 192.049 32.5004C191.749 32.5504 191.47 32.3706 191.42 32.0808Z" fill="black"/>
<path d="M197.933 30.8956C197.983 30.8856 198.033 30.8556 198.083 30.8157C198.213 30.6958 198.223 30.506 198.103 30.3761C197.753 29.9965 196.814 29.487 195.765 30.2962C195.625 30.4061 195.605 30.5959 195.715 30.7357C195.825 30.8756 196.015 30.8956 196.155 30.7857C197.014 30.1164 197.623 30.7657 197.643 30.7857C197.723 30.8856 197.833 30.9156 197.933 30.8956Z" fill="black"/>
<path d="M192.886 31.0538C192.936 31.0438 192.986 31.0138 193.036 30.9739C193.166 30.854 193.176 30.6642 193.056 30.5343C192.706 30.1547 191.767 29.6452 190.718 30.4544C190.578 30.5643 190.558 30.7541 190.668 30.8939C190.778 31.0338 190.968 31.0538 191.108 30.9439C191.967 30.2746 192.576 30.9239 192.596 30.9439C192.666 31.0438 192.786 31.0837 192.886 31.0538Z" fill="black"/>
<path d="M201.609 28.1279L200.849 32.2209H199.791L198.202 27.459L201.609 28.1279Z" fill="black"/>
<path d="M199.611 32.1316C199.661 31.932 199.791 31.7622 199.971 31.6524C200.33 31.4228 200.97 31.1133 201.539 31.4827C202.368 32.0318 201.349 34.1282 199.801 33.4993C199.791 33.4993 199.321 33.1898 199.611 32.1316Z" fill="#FFD9BD"/>
<path d="M193.925 34.4974C194.474 34.6372 194.864 34.2878 194.874 34.2778C194.914 34.2478 194.914 34.1879 194.874 34.148C194.844 34.1081 194.784 34.1081 194.744 34.148C194.724 34.168 194.284 34.5573 193.705 34.2079C193.605 34.148 193.555 34.0981 193.545 34.0581C193.525 33.9982 193.585 33.8984 193.665 33.7686C193.855 33.4691 194.164 32.96 194.094 31.9717C194.094 31.9218 194.044 31.8818 193.994 31.8818C193.945 31.8818 193.905 31.9318 193.905 31.9817C193.975 32.9101 193.685 33.3693 193.505 33.6688C193.405 33.8285 193.325 33.9583 193.355 34.0981C193.375 34.1979 193.455 34.2778 193.605 34.3676C193.725 34.4275 193.825 34.4774 193.925 34.4974Z" fill="#E8A779"/>
<path d="M196.222 35.0283C196.222 35.0283 194.144 35.7172 192.676 35.3578C192.676 35.3578 193.335 36.9251 194.594 36.8053C195.862 36.6955 196.222 35.0283 196.222 35.0283Z" fill="white"/>
<path d="M190.337 27.9493C190.337 27.9493 189.648 28.6781 190.127 32.1123C190.127 32.1123 189.358 28.3487 189.688 27.8495C190.027 27.3404 190.337 27.9493 190.337 27.9493Z" fill="black"/>
<path d="M189.772 27.179C189.772 27.179 190.311 22.2873 196.205 22.3672C202.089 22.4371 201.62 28.1274 201.62 28.1274C201.62 28.1274 197.474 27.3288 196.635 27.2689C195.795 27.209 189.772 27.179 189.772 27.179Z" fill="#FFBE17"/>
<path d="M198.732 27.5573C198.732 27.5573 191.718 24.7221 187.762 26.6388C183.806 28.5556 189.65 28.895 189.65 28.895C189.65 28.895 189.92 27.118 198.732 27.5573Z" fill="#FFCD4D"/>
<path d="M211.907 67.9004C211.907 67.9004 208.361 68.1001 207.302 68.2498C206.233 68.4095 205.094 67.7706 204.965 68.3796C204.845 68.9885 206.843 69.5176 206.843 69.5176C206.843 69.5176 205.064 70.7855 204.455 71.095C203.846 71.4044 203.956 71.7738 204.395 71.7738C204.895 71.7738 206.103 71.4743 206.103 71.4743C206.103 71.4743 204.845 71.9535 204.925 72.4227C205.004 72.8819 207.182 72.3728 207.182 72.3728C207.182 72.3728 205.814 72.9418 205.734 73.2313C205.654 73.5208 205.714 74.1498 206.723 73.7804C207.732 73.411 207.902 73.3412 207.902 73.3412C207.902 73.3412 207.232 73.7704 207.082 73.9901C206.943 74.2097 207.082 74.8386 208.521 74.1298C209.959 73.421 211.967 71.9435 212.986 70.3362L211.907 67.9004Z" fill="#FFD9BD"/>
<path d="M192.906 54.9728C192.906 54.9728 191.777 47.5355 191.907 44.3808L193.415 43.1729C193.415 43.1729 193.965 51.0295 195.193 54.5136L192.906 54.9728Z" fill="#FFBE17"/>
<path d="M207.764 51.598C207.764 51.598 205.636 43.5217 206.425 39.3887L204.137 39.6083C204.137 39.6083 203.988 48.0839 205.696 52.9756L207.764 51.598Z" fill="#FFBE17"/>
</g>
<path d="M133.526 97.5249C127.305 106.246 86.9217 126.665 78.7896 122.637C78.7896 122.637 74.2872 119.563 66.2659 117.072C60.2672 115.217 52.3152 113.694 42.7977 114.04C41.2877 114.095 39.7776 114.095 38.2814 114.054C17.7502 113.431 -0.869114 103.173 0.0313756 81.4667C1.36133 49.4612 24.3169 23.0344 50.916 20.1827C77.5012 17.3172 98.9883 30.7313 115.294 44.7268C131.614 58.7361 139.746 88.7898 133.526 97.5249Z" fill="#FFEBB7"/>
<mask id="mask2_3362_40250" style="mask-type:alpha" maskUnits="userSpaceOnUse" x="0" y="19" width="136" height="105">
<path d="M133.526 97.5249C127.305 106.246 86.9217 126.665 78.7896 122.637C78.7896 122.637 74.2872 119.563 66.2659 117.072C60.2672 115.217 52.3152 113.694 42.7977 114.04C41.2877 114.095 39.7776 114.095 38.2814 114.054C17.7502 113.431 -0.869114 103.173 0.0313756 81.4667C1.36133 49.4612 24.3169 23.0344 50.916 20.1827C77.5012 17.3172 98.9883 30.7313 115.294 44.7268C131.614 58.7361 139.746 88.7898 133.526 97.5249Z" fill="#FFEBB7"/>
</mask>
<g mask="url(#mask2_3362_40250)">
<path d="M58.9844 58.2478C58.9844 58.2478 84.7977 44.5568 87.3996 26.1016L91.1934 27.5232C91.1934 27.5232 87.1689 50.1152 67.7512 63.3195L58.9844 58.2478Z" fill="#FFD9BD"/>
<path d="M34.4395 79.1234C34.4395 79.1234 33.2219 73.168 37.4387 102.868L47.5641 91.3927C47.5641 91.3927 48.6663 79.1618 48.2562 78.3165C47.8461 77.4584 45.193 70.8883 44.4111 70.376C43.6293 69.8637 40.9634 68.6982 40.9634 68.6982L34.4395 79.1234Z" fill="black"/>
<path d="M40.4628 95.058C40.4628 95.058 36.3485 93.9053 36.3742 99.374C36.387 103.165 40.7576 179.637 40.7576 179.637L49.9986 179.189L54.1128 121.684L65.3789 179.637H75.5684L64.9559 90.1016L40.4628 95.058Z" fill="#FFBE17"/>
<path d="M50.1911 56.2525C50.1911 56.2525 53.6773 55.5481 56.6893 55.5609C58.8681 55.5737 65.1484 53.2684 66.648 52.6152L71.9414 63.3477L61.6238 71.1089L38.2841 79.7538L35.772 85.4403C35.772 85.4403 24.5316 82.8532 24.6598 82.597C24.8007 82.3281 30.0172 65.0127 32.6831 62.4896C36.6564 58.7115 50.1911 56.2525 50.1911 56.2525Z" fill="black"/>
<path d="M61.3437 70.043L65.2656 91.8281C65.2656 91.8281 45.0533 112.448 41.785 103.867C38.5039 95.2861 42.3874 74.756 42.3874 74.756L61.3437 70.043Z" fill="#FFBE17"/>
<path d="M34.0676 85.0291C34.0676 85.0291 32.6449 91.0101 33.3242 92.3932C34.0035 93.7764 44.8979 96.7477 49.5761 95.531L50.1016 98.7841C50.1016 98.7841 30.7095 104.381 25.9416 95.9665C25.9416 95.9665 23.3142 92.6878 26.0057 83.0439L34.0676 85.0291Z" fill="#FFD9BD"/>
<path d="M51.7188 43.4433C51.7188 43.4433 52.0649 42.4316 52.6159 42.6621C54.0129 43.264 53.1542 44.7241 52.4365 45.1851L51.7188 43.4433Z" fill="#FFD9BD"/>
<path d="M51.1418 40.1778C51.1162 40.0881 51.0906 39.9985 51.065 39.9088C50.014 35.8361 45.7331 33.454 41.6573 34.7987C38.2736 35.913 36.1589 39.3837 36.7356 42.8929C36.9407 44.1993 37.479 45.3519 38.2352 46.2997C39.3246 47.7853 40.2603 49.0532 41.1831 50.0778C42.6955 51.7684 43.6055 53.92 43.7977 56.1741L43.9516 57.9543C48.9117 59.1453 50.3344 56.4814 50.3344 56.4814L49.6038 53.3308C49.5141 52.921 49.7448 52.5112 50.1421 52.3831C50.1421 52.3831 50.1421 52.3831 50.1549 52.3831C55.4868 50.6157 51.7699 42.5984 51.1418 40.1778Z" fill="#FFD9BD"/>
<path d="M44.7989 45.7761C44.7092 45.4173 44.3375 45.1866 43.9659 45.2891C43.607 45.3788 43.3763 45.7505 43.4788 46.1221C43.5686 46.481 43.9402 46.7117 44.3119 46.6091C44.6835 46.5194 44.9014 46.1478 44.7989 45.7761Z" fill="#050521"/>
<path d="M50.3614 43.0847C50.2717 42.7259 49.9 42.4952 49.5284 42.5977C49.1695 42.6874 48.9388 43.0591 49.0413 43.4307C49.1311 43.7896 49.5027 44.0203 49.8744 43.9177C50.246 43.828 50.4639 43.4564 50.3614 43.0847Z" fill="#050521"/>
<path d="M42.1703 45.3634C42.1062 45.3762 42.0293 45.3762 41.9524 45.3634C41.7346 45.2994 41.6192 45.0817 41.6833 44.8639C41.8755 44.2236 42.6701 43.1093 44.3362 43.4679C44.5541 43.5192 44.695 43.7241 44.6438 43.9418C44.5925 44.1595 44.3874 44.3004 44.1696 44.2492C42.7983 43.9546 42.465 45.0432 42.4522 45.0817C42.4138 45.2225 42.2984 45.325 42.1703 45.3634Z" fill="#050521"/>
<path d="M48.0922 42.7267C48.0281 42.7395 47.9512 42.7395 47.8743 42.7267C47.6564 42.6627 47.5411 42.4449 47.6052 42.2272C47.7974 41.5869 48.592 40.4726 50.2581 40.8312C50.4759 40.8825 50.6169 41.0874 50.5656 41.3051C50.5144 41.5228 50.3093 41.6637 50.0914 41.6125C48.7201 41.3179 48.3869 42.4065 48.3741 42.4449C48.3357 42.5986 48.2203 42.7011 48.0922 42.7267Z" fill="#050521"/>
<path d="M36.3776 44.2129L39.5431 48.5161L40.7734 47.927L39.9404 41.5361L36.3776 44.2129Z" fill="black"/>
<path d="M40.9299 47.7207C40.7505 47.5158 40.507 47.4005 40.2507 47.3621C39.7124 47.2852 38.7897 47.298 38.3539 48.0409C37.7131 49.1423 40.0584 50.9865 41.4938 49.3984C41.4938 49.3984 41.8527 48.7837 40.9299 47.7207Z" fill="#FFD9BD"/>
<path d="M48.8097 47.2871C48.2586 47.761 47.605 47.5689 47.5922 47.5561C47.5281 47.5304 47.4897 47.4664 47.5153 47.4024C47.5409 47.3383 47.605 47.2999 47.6691 47.3255C47.6947 47.3383 48.4252 47.5432 48.8994 46.8132C48.9763 46.698 49.0148 46.6083 49.002 46.5443C48.9891 46.4674 48.861 46.3906 48.6944 46.2753C48.3099 46.032 47.6691 45.6222 47.1949 44.4311C47.1693 44.367 47.1949 44.303 47.259 44.2774C47.3231 44.2518 47.3872 44.2774 47.4128 44.3414C47.8614 45.4557 48.4381 45.8271 48.8225 46.0704C49.0276 46.1985 49.1942 46.3138 49.2326 46.4802C49.2583 46.6083 49.2198 46.7492 49.1045 46.9285C49.0148 47.095 48.9122 47.2103 48.8097 47.2871Z" fill="#E8A779"/>
<path d="M46.4655 49.182C46.4655 49.182 49.2466 48.8234 50.7461 47.5811C50.7461 47.5811 50.8614 49.7583 49.3363 50.3346C47.8112 50.8981 46.4655 49.182 46.4655 49.182Z" fill="white"/>
<path d="M49.2962 37.7202C49.2962 37.7202 50.5009 38.1684 51.8594 42.4076C51.8594 42.4076 50.6547 37.6305 49.9754 37.2463C49.309 36.8493 49.2962 37.7202 49.2962 37.7202Z" fill="black"/>
<path d="M35.8641 42.6609C35.4924 42.7249 35.0054 42.7377 34.8388 42.3919C34.6978 42.123 34.8772 41.8028 34.9926 41.521C35.6719 40.0098 35.1079 38.0887 36.0435 36.7311C36.7228 35.7578 38.0686 35.2711 38.4275 34.1312C38.5685 33.7086 38.5557 33.2219 38.8505 32.8889C39.0427 32.6712 39.3375 32.5687 39.6195 32.4919C40.4654 32.2614 41.3369 32.1973 42.2085 32.2998C42.5289 32.3382 42.8493 32.3894 43.1569 32.351C43.6568 32.2742 44.067 31.9284 44.5155 31.6851C45.1436 31.3393 45.8741 31.1984 46.5663 31.3393C47.2584 31.4929 47.8992 31.954 48.1684 32.6072C48.2709 32.8377 48.3222 33.081 48.4888 33.2731C48.617 33.414 48.7836 33.5037 48.9502 33.5677C49.3732 33.747 49.8217 33.8751 50.2703 33.9391C50.783 34.0032 51.347 34.0032 51.7187 34.349C52.0006 34.6051 52.116 35.0149 52.1545 35.3992C52.2185 36.0651 52.0647 36.7951 51.552 37.205C51.0265 37.6276 50.3088 37.6148 49.6423 37.666C48.9758 37.7173 48.2196 37.9094 47.9377 38.5241C47.8223 38.7675 47.8223 39.0492 47.7198 39.2926C47.5147 39.8177 46.9508 40.125 46.3996 40.2275C45.8485 40.3299 45.2846 40.2787 44.7206 40.3043C42.3751 40.4324 40.8755 41.9052 39.7733 43.8135C39.2991 44.6332 38.3122 45.8499 37.2227 45.5553C36.0179 45.2223 35.7359 43.7367 35.8641 42.6609Z" fill="black"/>
<path d="M61.4336 70.364C61.4336 70.364 57.8195 59.1192 55.9099 55.5332L53.3596 55.7637C53.3596 55.7637 57.9989 66.3938 58.5244 71.1068L61.4336 70.364Z" fill="#FFBE17"/>
<path d="M42.3872 74.7569C42.3872 74.7569 40.3238 64.2421 37.1071 59.9133L39.8753 58.8887C39.8753 58.8887 44.7838 68.5966 45.5527 75.1923L42.3872 74.7569Z" fill="#FFBE17"/>
<path d="M43.9638 77.2404L59.2159 73.9873L61.7793 85.9877L54.8966 91.1362L46.5143 89.2408L43.9638 77.2404Z" fill="#FFD361"/>
<path d="M54.0897 85.2969C54.7561 83.0556 57.2552 81.8261 59.6774 82.5433C62.0996 83.2605 63.5221 85.6555 62.8685 87.8967C62.5481 88.9854 61.792 89.8306 60.8308 90.3301C59.9594 90.7912 59.2929 91.5724 59.011 92.5202C58.7803 93.2886 57.9729 93.7241 57.2168 93.4935L55.7942 93.0709C55.0252 92.8404 54.5895 92.0335 54.8202 91.2779C55.1021 90.3301 54.974 89.3184 54.487 88.4475C53.9359 87.4997 53.7693 86.3855 54.0897 85.2969Z" fill="white"/>
<path d="M55.5739 93.5582C55.5996 93.571 55.6252 93.5454 55.638 93.5197C55.7918 93.0715 57.2015 85.8226 57.2656 85.5152C57.2656 85.4896 57.2528 85.464 57.2272 85.4512C57.2015 85.4512 57.1759 85.464 57.1631 85.4896C57.1503 85.5664 55.7021 93.0459 55.5483 93.4813C55.5227 93.5197 55.5355 93.5582 55.5739 93.5582Z" fill="#060633"/>
<path d="M57.1546 94.0312C57.1803 94.044 57.2187 94.0184 57.2187 93.9928C57.3213 93.5445 60.192 86.4749 60.2176 86.4109C60.2304 86.3852 60.2176 86.3468 60.192 86.3468C60.1664 86.334 60.1279 86.3468 60.1279 86.3724C60.0126 86.667 57.2315 93.5189 57.129 93.9671C57.1162 93.9928 57.129 94.0184 57.1546 94.0312Z" fill="#060633"/>
<path d="M58.2931 87.7932C58.4213 87.8317 58.5751 87.8317 58.716 87.7676C58.7801 87.8573 58.8698 87.9213 58.9851 87.9469C59.1389 87.9725 59.3056 87.9213 59.4465 87.7932C59.5619 87.678 59.8182 87.2681 59.8951 87.1145C59.9079 87.1017 59.8951 87.0888 59.8823 87.076C59.8694 87.0632 59.8566 87.076 59.8438 87.0888C59.7669 87.2425 59.5106 87.6524 59.3953 87.7548C59.2671 87.8701 59.1133 87.9213 58.9851 87.8957C58.8954 87.8829 58.8186 87.8189 58.7545 87.7548C58.998 87.6396 59.1389 87.4218 59.2158 87.2553C59.3184 87.0504 59.344 86.8583 59.2927 86.6918C59.2671 86.615 59.2415 86.5638 59.1902 86.5253C59.0749 86.4229 58.8826 86.4741 58.7801 86.5894C58.6776 86.6918 58.6391 86.8455 58.6135 86.9864C58.5751 87.1657 58.5494 87.3578 58.5879 87.5499C58.6007 87.6139 58.6263 87.678 58.6647 87.742C58.4725 87.8189 58.2547 87.7804 58.1137 87.6652C58.0496 87.6139 58.0112 87.5499 57.9727 87.4731C58.0496 87.4474 58.1137 87.409 58.1649 87.3578C58.229 87.2938 58.2546 87.2169 58.2803 87.1273C58.37 86.8967 58.4084 86.6406 58.4084 86.3973C58.4084 86.3845 58.4085 86.3844 58.3956 86.3716C58.3187 86.3204 58.229 86.346 58.1649 86.3844C58.1009 86.4357 58.0624 86.4997 58.0368 86.5638C57.9599 86.7174 57.8702 86.9224 57.8445 87.1401C57.8445 87.2425 57.8446 87.345 57.883 87.4218C57.7805 87.4346 57.6779 87.409 57.5882 87.3578C57.537 87.3322 57.4985 87.281 57.4601 87.2425C57.5113 87.2041 57.5498 87.1529 57.5882 87.1145C57.8317 86.7943 57.9342 86.3716 57.8958 85.9746C57.8958 85.9618 57.8958 85.9618 57.883 85.9618C57.7805 85.885 57.6523 85.9234 57.5626 86.0002C57.4729 86.0771 57.4344 86.1795 57.396 86.2692C57.3319 86.4357 57.2678 86.6534 57.2807 86.8711C57.2935 87.012 57.3319 87.1401 57.396 87.2425C57.3319 87.281 57.2678 87.3194 57.1909 87.2938C57.1268 87.281 57.0756 87.2425 57.05 87.2041C56.9474 87.0888 56.9218 86.9224 56.9859 86.7815C56.9859 86.7687 56.9859 86.7559 56.9731 86.743C56.9602 86.7302 56.9474 86.7431 56.9346 86.7559C56.8577 86.9095 56.8834 87.1145 57.0115 87.2425C57.0628 87.2938 57.1269 87.3322 57.1781 87.345C57.2678 87.3706 57.3576 87.3322 57.4344 87.281C57.4729 87.3322 57.5241 87.3834 57.5754 87.409C57.6779 87.4731 57.8061 87.4987 57.9215 87.4859C57.9599 87.5755 58.0111 87.6524 58.088 87.7036C58.1521 87.742 58.2162 87.7676 58.2931 87.7932ZM59.1005 86.5253C59.1261 86.5381 59.139 86.5381 59.1646 86.5638C59.203 86.5894 59.2287 86.6406 59.2543 86.7046C59.2927 86.8583 59.2671 87.0376 59.1774 87.2297C59.1005 87.3834 58.9723 87.6011 58.7417 87.7036C58.7417 87.7036 58.7416 87.7036 58.7288 87.7036C58.6904 87.6396 58.6648 87.5755 58.652 87.5243C58.6135 87.345 58.6391 87.1529 58.6776 86.9864C58.7032 86.8583 58.7417 86.7174 58.8314 86.615C58.8954 86.5381 59.0108 86.4869 59.1005 86.5253ZM58.3828 86.4101C58.3828 86.6534 58.3315 86.8839 58.2546 87.1017C58.229 87.1785 58.2034 87.2553 58.1393 87.3066C58.0881 87.3578 58.0368 87.3962 57.9599 87.409C57.9342 87.3322 57.9215 87.2297 57.9215 87.1401C57.9343 86.9352 58.024 86.7431 58.1009 86.5894C58.1265 86.5253 58.1649 86.4741 58.2162 86.4357C58.2803 86.3973 58.3444 86.3844 58.3828 86.4101ZM57.8702 85.9746C57.9086 86.3588 57.8061 86.7559 57.5754 87.0632C57.5498 87.0888 57.5113 87.1401 57.4601 87.1785C57.396 87.0888 57.3575 86.9608 57.3575 86.8455C57.3447 86.6278 57.4088 86.4229 57.4729 86.2564C57.5113 86.1667 57.5498 86.0643 57.6267 86.0002C57.6908 85.949 57.7933 85.9234 57.8702 85.9746Z" fill="#060633"/>
<path d="M54.1158 95.005L57.5505 96.0168C57.5761 96.0296 57.6017 96.004 57.6145 95.9784L57.8965 95.0179L54.3721 93.9805L54.0902 94.941C54.0774 94.9666 54.0902 94.9922 54.1158 95.005Z" fill="#424BE1"/>
<path d="M55.7679 94.9274C56.806 95.2348 57.8184 95.2092 57.8825 95.2092C58.0747 95.2092 58.2285 95.0427 58.2285 94.8506C58.2285 94.6585 58.0619 94.5048 57.8697 94.5048C57.8312 94.5048 55.7423 94.5432 54.717 93.5955C54.576 93.4674 54.3581 93.4674 54.2171 93.6083C54.089 93.7492 54.089 93.9669 54.23 94.1078C54.6657 94.5048 55.2168 94.7609 55.7679 94.9274Z" fill="#060633"/>
<path d="M55.9358 94.3767C56.9739 94.684 57.9864 94.6584 58.0505 94.6584C58.2427 94.6584 58.3965 94.4919 58.3965 94.2998C58.3965 94.1077 58.2299 93.954 58.0376 93.954C57.9992 93.954 55.9102 93.9924 54.8849 93.0447C54.7439 92.9166 54.5261 92.9166 54.3851 93.0575C54.257 93.1984 54.257 93.4161 54.3979 93.557C54.8209 93.9668 55.3848 94.223 55.9358 94.3767Z" fill="#060633"/>
<path d="M56.0882 93.8396C57.1263 94.1469 58.1387 94.1213 58.2028 94.1213C58.395 94.1213 58.5488 93.9548 58.5488 93.7627C58.5488 93.5706 58.3822 93.4169 58.19 93.4169C58.1515 93.4169 56.0626 93.4553 55.0373 92.5076C54.8963 92.3795 54.6784 92.3795 54.5375 92.5204C54.4093 92.6613 54.4093 92.879 54.5503 93.0199C54.986 93.4169 55.5499 93.6731 56.0882 93.8396Z" fill="#060633"/>
<path d="M47.8226 96.1958C47.8226 96.1958 51.7956 93.9801 53.0643 93.4166C54.3203 92.8531 55.1405 91.3803 55.6916 91.9566C56.2427 92.5329 54.4356 94.4796 54.4356 94.4796C54.4356 94.4796 57.2423 94.6333 58.1138 94.5565C58.9853 94.4796 59.1262 94.9407 58.6521 95.248C58.1138 95.5938 56.6015 96.0933 56.6015 96.0933C56.6015 96.0933 58.306 95.7475 58.5239 96.311C58.7546 96.8746 56.0376 97.8095 56.0376 97.8095C56.0376 97.8095 57.9087 97.4765 58.2035 97.7455C58.4983 98.0144 58.8571 98.7316 57.5114 99.0262C56.1658 99.3208 55.9351 99.3592 55.9351 99.3592C55.9351 99.3592 56.9604 99.3592 57.2679 99.5001C57.5755 99.6409 57.8447 100.409 55.8069 100.64C53.7564 100.858 50.4242 100.32 48.2199 99.2823L47.8226 96.1958Z" fill="#FFD9BD"/>
</g>
<path d="M126.376 181.541C126.376 210.986 125.6 239.392 89.5941 227.473C87.4607 226.767 85.3133 226.296 83.1522 226.006C80.6446 225.674 78.1371 225.59 75.6573 225.673C65.5995 226.02 55.9989 229.176 48.8504 229.882C47.0771 230.062 45.4424 230.089 44.0016 229.882C43.6137 229.826 43.2258 229.757 42.8656 229.66C35.0937 227.695 28.5686 224.801 23.2072 221.258C21.0045 219.79 18.9819 218.226 17.167 216.565C15.1998 214.765 13.4542 212.855 11.9442 210.875C11.4593 210.238 10.9883 209.588 10.545 208.923C8.12056 205.352 6.37499 201.559 5.2667 197.669C4.42162 194.748 3.9506 191.771 3.81206 188.795C3.68738 186.234 3.82591 183.673 4.21382 181.167C4.65713 178.205 5.19743 175.395 5.80699 172.723C6.12563 171.353 6.45811 170.01 6.81831 168.709C15.1028 138.378 34.7474 127.566 62.0807 128.605C105.831 130.252 126.362 146.739 126.362 177.541C126.376 178.883 126.376 180.212 126.376 181.541Z" fill="#FFEBB7"/>
<mask id="mask3_3362_40250" style="mask-type:alpha" maskUnits="userSpaceOnUse" x="3" y="128" width="124" height="103">
<path d="M126.376 181.541C126.376 210.986 125.6 239.392 89.5941 227.473C87.4607 226.767 85.3133 226.296 83.1522 226.006C80.6446 225.674 78.1371 225.59 75.6573 225.673C65.5995 226.02 55.9989 229.176 48.8504 229.882C47.0771 230.062 45.4424 230.089 44.0016 229.882C43.6137 229.826 43.2258 229.757 42.8656 229.66C35.0937 227.695 28.5686 224.801 23.2072 221.258C21.0045 219.79 18.9819 218.226 17.167 216.565C15.1998 214.765 13.4542 212.855 11.9442 210.875C11.4593 210.238 10.9883 209.588 10.545 208.923C8.12056 205.352 6.37499 201.559 5.2667 197.669C4.42162 194.748 3.9506 191.771 3.81206 188.795C3.68738 186.234 3.82591 183.673 4.21382 181.167C4.65713 178.205 5.19743 175.395 5.80699 172.723C6.12563 171.353 6.45811 170.01 6.81831 168.709C15.1028 138.378 34.7474 127.566 62.0807 128.605C105.831 130.252 126.362 146.739 126.362 177.541C126.376 178.883 126.376 180.212 126.376 181.541Z" fill="white"/>
</mask>
<g mask="url(#mask3_3362_40250)">
<path d="M92.685 191.254C92.685 191.254 112.631 210 126.33 212.204L124.025 218.697C124.025 218.697 97.396 213.522 85.7521 196.713L92.685 191.254Z" fill="#FFD9BD"/>
<path d="M80.174 177.398C74.2436 174.226 48.9011 176.212 42.1855 182.539L44.5576 233.736L84.5342 231.7L85.7871 196.711C85.7704 196.711 86.1045 180.569 80.174 177.398Z" fill="#FFBE17"/>
<path d="M44.4084 228.996H48.5013L51.0739 195.192H83.132L86.3061 232.017C86.3061 232.017 91.251 262.432 82.5473 334.412H69.4836C69.4836 334.412 66.7104 260.278 64.3382 256.022C61.966 251.765 53.6466 302.378 40.5828 332.843L28.7051 329.287C28.7051 329.287 39.3967 275.903 40.967 262.048C42.5708 248.193 44.4084 228.996 44.4084 228.996Z" fill="black"/>
<path d="M51.0719 195.192V178.348L54.5631 177.497L55.7324 196.093L51.0719 195.192Z" fill="black"/>
<path d="M83.1309 195.56L80.1575 177.398C80.1575 177.398 78.3701 176.597 76.5995 176.363L79.8401 195.193L83.1309 195.56Z" fill="black"/>
<path d="M78.4355 202.42H56.618V219.58L67.5268 224.638L78.4355 219.58V202.42Z" fill="#404040"/>
<path d="M80.1739 177.399C80.1739 177.399 85.3025 178.852 97.4141 193.308L88.7939 202.439L84.9851 199.434C84.9851 199.434 83.0305 185.763 82.8969 185.128C82.7799 184.494 80.1739 177.399 80.1739 177.399Z" fill="#FFBE17"/>
<path d="M36.6038 202.42C36.6038 202.42 27.7999 220.365 40.0117 253.183L44.7394 251.648C44.7394 251.648 39.5272 225.824 46.4434 203.605L36.6038 202.42Z" fill="#FFD9BD"/>
<path d="M42.1686 182.54C42.1686 182.54 38.5268 184.66 33.6822 208.848H45.5098L48.6504 204.825L42.1686 182.54Z" fill="#FFBE17"/>
<path d="M75.3805 159.251C75.3805 159.251 76.0821 157.999 76.7335 158.433C78.4206 159.552 76.9507 161.254 75.915 161.688L75.3805 159.251Z" fill="#FFD9BD"/>
<path d="M75.3983 154.845C75.3816 154.728 75.3816 154.595 75.3649 154.478C74.9472 148.902 69.9021 144.796 64.2723 145.597C59.578 146.265 56.0198 150.305 55.9362 155.029C55.9028 156.781 56.3372 158.417 57.1056 159.836C58.1748 162.04 59.1103 163.909 60.0792 165.462C61.6663 168.016 62.3345 171.054 62.0672 174.042L61.85 176.396C68.0478 179.117 70.5536 175.962 70.5536 175.962L70.3365 171.672C70.3031 171.104 70.7207 170.637 71.272 170.553C71.272 170.553 71.272 170.553 71.2887 170.553C78.6391 169.518 75.6656 158.167 75.3983 154.845Z" fill="#FFD9BD"/>
<path d="M65.792 160.687C65.7585 160.187 65.3242 159.819 64.8231 159.853C64.322 159.886 63.9545 160.32 63.9879 160.821C64.0213 161.322 64.4556 161.689 64.9567 161.656C65.4579 161.622 65.8421 161.188 65.792 160.687Z" fill="black"/>
<path d="M73.6943 158.469C73.6609 157.968 73.2266 157.601 72.7254 157.634C72.2243 157.667 71.8568 158.101 71.8902 158.602C71.9236 159.103 72.358 159.47 72.8591 159.437C73.3602 159.403 73.7444 158.969 73.6943 158.469Z" fill="black"/>
<path d="M62.4517 159.521C62.3514 159.521 62.2679 159.504 62.1677 159.471C61.9004 159.337 61.8002 159.02 61.9338 158.753C62.3347 157.969 63.6377 156.7 65.7257 157.551C65.993 157.668 66.1266 157.969 66.0097 158.236C65.8927 158.503 65.592 158.636 65.3248 158.52C63.6042 157.818 62.9027 159.154 62.886 159.204C62.8025 159.404 62.6354 159.521 62.4517 159.521Z" fill="black"/>
<path d="M70.8208 157.483C70.7206 157.483 70.6371 157.466 70.5368 157.433C70.2696 157.299 70.1694 156.982 70.303 156.715C70.7039 155.931 72.0068 154.662 74.0948 155.513C74.3621 155.63 74.4957 155.931 74.3788 156.198C74.2619 156.465 73.9612 156.598 73.694 156.481C71.9734 155.78 71.2718 157.116 71.2551 157.166C71.1549 157.349 70.9879 157.466 70.8208 157.483Z" fill="black"/>
<path d="M55.1496 156.682L58.29 163.042L60.0272 162.541L60.4448 154.011L55.1496 156.682Z" fill="#5A3D1A"/>
<path d="M60.2801 162.325C60.0964 162.025 59.8124 161.808 59.4783 161.691C58.7935 161.474 57.5908 161.274 56.8391 162.142C55.7366 163.427 58.3759 166.399 60.631 164.646C60.6143 164.646 61.249 163.928 60.2801 162.325Z" fill="#FFD9BD"/>
<path d="M70.6864 163.609C69.8512 164.093 69.0493 163.692 69.0326 163.692C68.9491 163.659 68.9324 163.558 68.9658 163.475C68.9993 163.392 69.0995 163.375 69.183 163.408C69.2164 163.425 70.1184 163.876 70.9202 163.024C71.0539 162.891 71.1207 162.774 71.1207 162.707C71.1207 162.607 70.9703 162.473 70.7866 162.29C70.3356 161.872 69.6006 161.188 69.2498 159.535C69.2331 159.452 69.2832 159.369 69.3667 159.352C69.4502 159.335 69.5338 159.385 69.5505 159.469C69.8679 161.021 70.5361 161.655 70.9871 162.056C71.2209 162.273 71.4214 162.457 71.4214 162.69C71.4214 162.857 71.3378 163.024 71.1374 163.241C70.9871 163.392 70.8367 163.508 70.6864 163.609Z" fill="#E8A779"/>
<path d="M67.163 165.528C67.163 165.528 70.8881 165.695 73.1264 164.443C73.1264 164.443 72.759 167.315 70.6375 167.698C68.5328 168.082 67.163 165.528 67.163 165.528Z" fill="white"/>
<path d="M73.5608 151.191C73.5608 151.191 75.0308 152.059 75.8159 157.918C75.8159 157.918 75.3482 151.391 74.5631 150.723C73.778 150.072 73.5608 151.191 73.5608 151.191Z" fill="#5A3D1A"/>
<path d="M74.141 149.686C74.141 149.686 71.0004 141.924 61.3779 144.745C51.7555 147.566 55.1467 156.681 55.1467 156.681C55.1467 156.681 61.5784 153.459 62.9149 152.975C64.268 152.491 74.141 149.686 74.141 149.686Z" fill="black"/>
<path d="M59.6076 154.429C59.6076 154.429 69.8147 146.55 77.1819 147.869C84.5491 149.187 75.1271 152.442 75.1271 152.442C75.1271 152.442 73.8575 149.655 59.6076 154.429Z" fill="#272727"/>
</g>
<path d="M160.111 14.8965C171.028 14.8965 179.894 22.1088 179.894 30.9962C179.894 37.8486 174.63 43.6904 167.232 46.0161H167.218C166.969 46.2514 166.83 46.5837 166.858 46.9297C167.093 49.0201 168.52 51.7057 169.157 52.8131C169.268 53.0069 169.088 53.2561 168.867 53.1869C165.791 52.3978 163.741 49.823 162.66 48.0649C162.258 47.4143 161.538 47.0543 160.776 47.082C160.554 47.082 160.333 47.0959 160.111 47.0959C149.194 47.0959 140.342 39.8835 140.342 30.9962C140.328 22.1088 149.18 14.8965 160.111 14.8965Z" fill="#404040"/>
<path d="M170.971 0C163.06 0 156.646 5.2189 156.646 11.656C156.646 16.6119 160.456 20.8479 165.817 22.5368C165.997 22.7029 166.108 22.9521 166.066 23.2013C165.9 24.7102 164.861 26.6621 164.404 27.4511C164.321 27.5896 164.459 27.7695 164.612 27.728C166.828 27.1604 168.325 25.2916 169.1 24.018C169.391 23.5474 169.918 23.2843 170.458 23.2982C170.624 23.2982 170.777 23.2982 170.943 23.2982C178.853 23.2982 185.268 18.0793 185.268 11.6422C185.281 5.2189 178.881 0 170.971 0Z" fill="#FFBE17"/>
<path d="M71.8775 6.67871C63.967 6.67871 57.5527 11.8976 57.5527 18.3347C57.5527 23.2906 61.3625 27.5266 66.7239 29.2155C66.904 29.3816 67.0148 29.6308 66.9871 29.88C66.8209 31.3889 65.7818 33.3408 65.3247 34.1299C65.2415 34.2683 65.3801 34.4483 65.5325 34.4067C67.7491 33.8391 69.2452 31.9703 70.0211 30.6967C70.312 30.2261 70.8384 29.963 71.3787 29.9769C71.545 29.9769 71.6974 29.9769 71.8636 29.9769C79.7741 29.9769 86.1883 24.758 86.1883 18.3209C86.1883 11.8976 79.7879 6.67871 71.8775 6.67871Z" fill="#404040"/>
<path d="M30.9536 126.958C40.1802 126.958 47.6612 133.049 47.6612 140.552C47.6612 146.339 43.2142 151.281 36.9661 153.246C36.7583 153.44 36.6337 153.731 36.6614 154.022C36.8553 155.78 38.0606 158.05 38.6009 158.991C38.6979 159.157 38.5455 159.365 38.3515 159.31C35.7609 158.645 34.0153 156.458 33.1148 154.991C32.7823 154.451 32.1728 154.132 31.5216 154.16C31.3277 154.16 31.1476 154.174 30.9536 154.174C21.7271 154.174 14.2461 148.083 14.2461 140.58C14.2461 133.077 21.7271 126.958 30.9536 126.958Z" fill="#FFBE17"/>
<path d="M276.593 80.042C262.559 80.042 251.186 89.3031 251.186 100.724C251.186 109.528 257.946 117.031 267.464 120.021L267.477 120.035C267.81 120.34 267.976 120.769 267.935 121.212C267.63 123.897 265.801 127.344 264.984 128.756C264.831 129.006 265.067 129.31 265.358 129.241C269.306 128.23 271.938 124.908 273.324 122.665C273.836 121.835 274.765 121.364 275.734 121.392C276.025 121.406 276.302 121.406 276.593 121.406C290.627 121.406 302.001 112.144 302.001 100.724C302.001 89.3031 290.627 80.042 276.593 80.042Z" fill="#404040"/>
<path d="M86.797 121.888L86.6585 122.152C85.1207 124.962 86.5338 128.686 89.831 130.499L97.2011 134.527C100.581 136.382 104.585 135.552 106.164 132.672C107.744 129.793 106.289 125.972 102.909 124.117L95.5387 120.089C92.2554 118.275 88.3348 119.078 86.797 121.888Z" fill="#FFD9BD"/>
<path d="M146.687 233.12C151.577 231.071 157.174 229.299 163.2 227.984C175.087 225.382 186.184 225.077 194.066 226.725C190.922 214.03 186.128 193.971 186.668 191.41C187.472 187.617 185.574 140.412 181.792 129.254C178.869 120.63 157.105 107.05 155.692 105.181C154.292 103.312 131.212 144.496 131.212 144.496C131.212 144.496 120.005 168.057 116.68 172.168C109.767 180.71 133.858 202.969 141.298 208.576L146.687 233.12Z" fill="#FFD9BD"/>
<path d="M114.932 123.593L115.112 123.302C117.01 120.063 115.916 115.91 112.674 114.013L92.2536 102.108C88.9287 100.17 84.6618 101.292 82.7223 104.614C80.7828 107.936 81.9049 112.2 85.2298 114.138L105.65 126.043C108.878 127.926 113.034 126.832 114.932 123.593Z" fill="#FFD9BD"/>
<path d="M192.625 220.895C193.568 222.349 196.311 226.557 198.929 230.53C187.209 236.233 164.53 240.553 149 238.462C147.906 238.31 146.881 238.172 145.897 238.033L146.326 232.011C146.326 232.011 122.706 214.444 131.725 208.132C133.082 207.177 134.218 206.54 135.216 206.124C136.075 205.765 136.837 205.571 137.529 205.488C137.723 205.46 137.903 205.446 138.083 205.446C141.547 205.322 143.5 207.883 150.122 205.017C152.325 204.062 153.6 202.899 154.459 201.708C157.368 197.652 155.456 193.25 168.783 195.354C175.807 196.462 181.141 194.621 185.435 192.835C185.837 192.669 186.239 192.489 186.627 192.323C188.788 191.395 190.672 190.565 192.376 190.274C194.551 189.9 196.449 190.412 198.236 192.724C198.652 193.264 199.067 193.901 199.483 194.648C200.577 196.642 201.076 198.704 201.173 200.767C201.589 209.917 193.734 218.805 192.459 220.175C192.348 220.3 192.293 220.355 192.293 220.355C192.293 220.355 192.404 220.549 192.625 220.895Z" fill="#FFBE17"/>
<path d="M161.788 177.732L111.956 183.227C105.528 183.933 99.7508 179.31 99.0442 172.886L88.6678 79.0569L88.1968 74.8347C87.6981 70.3772 90.926 66.3626 95.3869 65.8643L151.009 59.7317C154.501 59.3441 157.659 61.8636 158.047 65.3659L158.726 71.4708L169.407 168.235C169.934 172.956 166.512 177.205 161.788 177.732Z" fill="white"/>
<path d="M165.25 176.916L107.66 183.27C103.795 183.7 100.303 180.903 99.8878 177.041L99.7632 175.934L169.794 168.209L170.084 170.881C170.417 173.885 168.256 176.584 165.25 176.916Z" fill="#050521"/>
<path d="M154.347 92.7613L117.205 97.0527C116.235 97.1634 115.348 96.4713 115.238 95.5022L114.199 86.5041C114.088 85.5351 114.78 84.6491 115.75 84.5384L152.892 80.247C153.862 80.1362 154.748 80.8284 154.859 81.7974L155.898 90.7955C156.009 91.7646 155.316 92.6505 154.347 92.7613Z" fill="#FFEBB7"/>
<path d="M117.8 99.768L118.742 96.8747L121.97 96.501L117.8 99.768Z" fill="#FFEBB7"/>
<path d="M109.863 98.4363C108.948 99.4469 107.771 100.25 106.386 100.72C104.668 101.316 102.881 101.316 101.26 100.831C99.8466 100.402 98.5443 99.613 97.5192 98.5194C96.7434 97.6888 96.1199 96.6782 95.7182 95.5292C95.6074 95.2108 95.5242 94.8924 95.455 94.574C94.5683 90.4903 96.8542 86.2819 100.913 84.8838C105.291 83.3749 110.057 85.7005 111.567 90.075C112.62 93.0651 111.858 96.2491 109.863 98.4363Z" fill="#FFEBB7"/>
<path d="M112.704 119.7C111.748 120.877 110.46 121.818 108.922 122.344C106.844 123.064 104.669 122.912 102.799 122.081C100.748 121.168 99.058 119.437 98.2684 117.153C96.7583 112.779 99.0857 108.017 103.464 106.508C107.841 104.999 112.607 107.325 114.117 111.699C115.087 114.537 114.463 117.527 112.704 119.7Z" fill="#FFEBB7"/>
<path d="M113.935 142.61C113.215 143.191 112.37 143.648 111.441 143.967C108.186 145.088 104.709 144.091 102.52 141.696C101.772 140.879 101.176 139.897 100.788 138.775C99.2779 134.401 101.605 129.639 105.983 128.13C110.361 126.621 115.126 128.947 116.637 133.321C117.828 136.782 116.637 140.464 113.935 142.61Z" fill="#FFEBB7"/>
<path d="M118.202 162.353C118.05 162.575 117.883 162.796 117.717 163.004C116.955 163.931 115.972 164.706 114.836 165.246C114.559 165.371 114.268 165.495 113.977 165.592C113.326 165.814 112.661 165.952 111.996 166.021C110.707 166.132 109.433 165.952 108.269 165.509C107.41 165.191 106.607 164.72 105.9 164.139C104.75 163.184 103.836 161.924 103.309 160.415C101.799 156.041 104.127 151.278 108.505 149.77C112.882 148.261 117.648 150.586 119.158 154.961C120.045 157.536 119.615 160.249 118.202 162.353Z" fill="#FFEBB7"/>
<path d="M112.73 119.7C111.774 120.876 110.486 121.818 108.948 122.344C106.871 123.063 104.696 122.911 102.826 122.081C103.075 121.735 103.366 121.444 103.712 121.222C104.848 120.502 105.915 120.087 106.857 119.755C109.336 118.924 111.359 119.298 112.73 119.7Z" fill="#FFBE17"/>
<path d="M106.023 117.446C106.023 117.446 101.521 118.941 101.784 112.006C101.784 112.006 103.834 108.282 106.716 109.085C109.597 109.888 109.763 112.587 109.777 112.934C109.805 113.293 106.023 117.446 106.023 117.446Z" fill="black"/>
<path d="M105.151 109.68C103.6 110.192 102.63 111.812 102.921 113.431C103.032 114.013 103.267 114.539 103.613 114.954C104.375 115.965 104.985 116.781 105.636 117.321C106.273 117.847 106.689 118.609 106.786 119.439L106.813 119.688C106.855 120.048 107.146 120.339 107.52 120.367C108.379 120.422 108.905 120.187 109.21 119.965C109.459 119.785 109.556 119.467 109.473 119.162L109.071 117.667C111.038 116.878 109.764 113.21 109.459 112.102C109.445 112.061 109.445 112.019 109.431 111.978C108.947 110.137 106.993 109.071 105.151 109.68Z" fill="#FFD9BD"/>
<path d="M109.226 113.778C109.198 113.625 109.046 113.515 108.894 113.542C108.741 113.57 108.63 113.722 108.658 113.875C108.686 114.027 108.838 114.138 108.991 114.11C109.143 114.083 109.254 113.93 109.226 113.778Z" fill="#060633"/>
<path d="M106.646 114.787C106.618 114.634 106.466 114.523 106.313 114.551C106.161 114.579 106.05 114.731 106.078 114.884C106.106 115.036 106.258 115.147 106.41 115.119C106.563 115.091 106.674 114.939 106.646 114.787Z" fill="#060633"/>
<path d="M105.611 114.192C105.583 114.206 105.542 114.206 105.514 114.178C105.459 114.151 105.431 114.067 105.473 114.012C105.486 113.998 105.736 113.583 106.248 113.43C106.318 113.416 106.387 113.444 106.401 113.513C106.415 113.583 106.373 113.652 106.318 113.666C105.888 113.804 105.68 114.137 105.68 114.137C105.653 114.164 105.625 114.192 105.611 114.192Z" fill="#060633"/>
<path d="M108.119 112.837C108.091 112.823 108.05 112.809 108.036 112.768C108.008 112.712 108.036 112.629 108.091 112.601C108.105 112.588 108.534 112.38 109.061 112.532C109.13 112.546 109.158 112.615 109.144 112.685C109.13 112.754 109.061 112.781 108.992 112.768C108.548 112.643 108.202 112.823 108.202 112.823C108.174 112.851 108.147 112.851 108.119 112.837Z" fill="#060633"/>
<path d="M108.197 115.523C108.516 115.384 108.557 115.108 108.53 114.955C108.53 114.928 108.516 114.914 108.488 114.886C108.086 114.595 107.976 114.055 107.976 114.055C107.962 114 107.906 113.959 107.851 113.972C107.795 113.986 107.754 114.042 107.768 114.097C107.768 114.125 107.892 114.692 108.322 115.025C108.322 115.108 108.294 115.301 107.976 115.371C107.92 115.384 107.879 115.44 107.892 115.495C107.906 115.551 107.962 115.592 108.017 115.578C108.086 115.564 108.156 115.537 108.197 115.523Z" fill="#E8A779"/>
<path d="M104.224 115.952C104.709 116.409 104.529 112.062 106.44 111.356C108.352 110.65 109.807 113.294 109.807 113.294C109.807 113.294 109.82 111.563 108.74 110.484C107.673 109.404 105.443 108.67 103.781 110.193C102.132 111.702 101.883 113.764 104.224 115.952Z" fill="black"/>
<path d="M103.073 110.619C102.768 109.83 101.882 109.429 101.092 109.72C100.303 110.024 99.9009 110.91 100.192 111.699C100.497 112.488 101.383 112.89 102.173 112.599C102.976 112.294 103.378 111.408 103.073 110.619Z" fill="black"/>
<path d="M104.847 115.591C104.764 115.494 104.653 115.439 104.528 115.425C104.279 115.397 103.863 115.397 103.669 115.744C103.378 116.242 104.459 117.087 105.11 116.353C105.11 116.367 105.276 116.076 104.847 115.591Z" fill="#FFD9BD"/>
<path d="M109.213 115.565C109.213 115.565 108.755 115.468 108.631 115.565C108.506 115.662 108.492 115.855 108.492 115.855C108.492 115.855 108.34 115.717 108.174 115.772C108.007 115.828 107.55 116.368 107.55 116.368C107.55 116.368 108.368 116.894 108.852 116.604C109.337 116.326 109.213 115.565 109.213 115.565Z" fill="#FF9D57"/>
<path d="M107.55 116.38C107.55 116.38 108.589 115.937 109.213 115.562C109.213 115.562 109.102 116.214 108.7 116.366C108.298 116.532 107.55 116.38 107.55 116.38Z" fill="white"/>
<path d="M118.105 162.185C118.133 162.241 118.174 162.296 118.202 162.338C118.049 162.559 117.883 162.781 117.717 162.988C116.955 163.916 115.971 164.691 114.835 165.231C114.143 165.231 113.45 165.383 112.813 165.632C112.536 165.743 112.272 165.882 111.995 165.992C110.707 166.103 109.432 165.923 108.269 165.48C107.867 165.106 107.59 164.594 107.396 164.082C107.244 163.681 107.133 163.251 107.008 162.836C106.939 162.615 106.869 162.407 106.8 162.199C106.509 161.41 106.08 160.663 105.526 160.026C105.29 159.763 105.027 159.5 104.888 159.168C104.791 158.946 104.75 158.697 104.75 158.462C104.708 157.423 105.221 156.371 106.066 155.762C106.274 155.61 106.509 155.485 106.689 155.305C106.869 155.112 107.05 154.89 107.133 154.641C107.715 152.814 108.878 152.468 109.169 152.398C110.707 151.997 113.201 152.426 114.032 153.99C114.392 154.669 114.392 155.485 114.738 156.178C115.071 156.842 115.68 157.313 116.318 157.673C116.789 157.949 117.315 158.199 117.62 158.655C118.257 159.68 117.509 161.147 118.105 162.185Z" fill="#5A3D1A"/>
<path d="M117.718 163.002C116.956 163.93 115.973 164.705 114.837 165.245C114.56 165.37 114.269 165.494 113.978 165.591C113.327 165.813 112.662 165.951 111.997 166.02C110.709 166.131 109.434 165.951 108.271 165.508C107.412 165.19 106.608 164.719 105.902 164.138C106.137 163.695 106.373 163.321 106.567 163.155C106.691 163.044 106.844 162.947 107.01 162.864C107.883 162.407 109.102 162.31 109.102 162.31L109.171 162.296L111.429 161.881H111.457C111.457 161.881 111.471 161.867 111.512 161.853C111.526 161.84 111.54 161.826 111.568 161.812C111.955 161.577 113.41 160.829 115.308 161.466C115.793 161.646 116.818 162.352 117.718 163.002Z" fill="#FFBE17"/>
<path d="M107.716 156.952C107.716 156.952 107.48 156.606 107.3 156.745C106.829 157.105 107.342 157.59 107.66 157.7L107.716 156.952Z" fill="#FFD9BD"/>
<path d="M110.653 152.69C112.094 152.787 113.244 153.95 113.327 155.389C113.354 155.86 113.257 156.303 113.091 156.705C112.703 157.701 112.371 158.504 111.969 159.086C111.554 159.681 111.373 160.401 111.47 161.107L111.581 161.827C109.919 162.657 109.185 162.311 109.185 162.311V160.165C107.384 159.958 107.619 156.635 107.606 155.653C107.606 155.611 107.606 155.583 107.606 155.542C107.606 153.908 108.977 152.579 110.653 152.69Z" fill="#FFD9BD"/>
<path d="M110.887 155.584C111.386 156.179 111.926 156.761 112.3 157.439C112.342 157.508 112.633 158.076 112.55 158.145C113.007 157.785 113.312 157.259 113.561 156.733C113.99 155.819 113.866 154.726 113.325 153.881C112.799 153.051 111.913 152.621 110.943 152.538C109.904 152.455 108.768 152.801 108.131 153.673C107.535 154.49 107.507 155.515 107.438 156.484C107.507 155.404 108.976 154.587 109.849 154.2C109.821 154.213 110.5 155.141 110.541 155.182C110.666 155.307 110.777 155.445 110.887 155.584Z" fill="#5A3D1A"/>
<path d="M112.217 157.509C112.258 157.412 112.342 157.342 112.439 157.301C112.632 157.218 112.979 157.134 113.228 157.37C113.574 157.716 112.882 158.658 112.175 158.187C112.161 158.201 111.968 157.993 112.217 157.509Z" fill="#FFD9BD"/>
<path d="M108.187 156.981C108.174 156.842 108.271 156.717 108.409 156.703C108.548 156.69 108.672 156.787 108.686 156.925C108.7 157.064 108.603 157.188 108.465 157.202C108.326 157.216 108.201 157.119 108.187 156.981Z" fill="#060633"/>
<path d="M110.541 157.231C110.527 157.092 110.624 156.967 110.763 156.953C110.901 156.94 111.026 157.037 111.04 157.175C111.054 157.314 110.957 157.438 110.818 157.452C110.68 157.48 110.555 157.369 110.541 157.231Z" fill="#060633"/>
<path d="M108.63 158.683C108.63 158.683 108.934 158.406 109.059 158.434C109.184 158.462 109.267 158.6 109.267 158.6C109.267 158.6 109.336 158.434 109.488 158.42C109.641 158.406 110.015 158.794 110.015 158.794C110.015 158.794 109.627 159.515 109.156 159.473C108.671 159.432 108.643 158.711 108.643 158.711L108.63 158.683Z" fill="#FF9D57"/>
<path d="M111.289 156.857C111.316 156.857 111.344 156.843 111.372 156.816C111.413 156.774 111.399 156.705 111.358 156.663C111.344 156.649 111.025 156.386 110.568 156.4C110.513 156.4 110.471 156.455 110.471 156.511C110.471 156.566 110.527 156.608 110.582 156.608C110.97 156.594 111.233 156.816 111.233 156.816C111.233 156.857 111.261 156.857 111.289 156.857Z" fill="#060633"/>
<path d="M108.838 156.413C108.865 156.413 108.893 156.385 108.907 156.357C108.935 156.302 108.907 156.247 108.865 156.219C108.852 156.205 108.491 156.025 108.034 156.163C107.979 156.177 107.951 156.233 107.965 156.288C107.979 156.343 108.034 156.371 108.09 156.357C108.464 156.247 108.769 156.399 108.769 156.399C108.782 156.413 108.81 156.413 108.838 156.413Z" fill="#060633"/>
<path d="M109.42 158.186C109.129 158.145 109.032 157.923 109.018 157.799C109.018 157.771 109.018 157.757 109.032 157.743C109.295 157.425 109.268 156.94 109.268 156.94C109.268 156.898 109.295 156.857 109.351 156.843C109.392 156.843 109.434 156.87 109.448 156.926C109.448 156.954 109.475 157.438 109.198 157.812C109.212 157.882 109.281 158.034 109.572 158.02C109.628 158.02 109.655 158.048 109.669 158.103C109.669 158.145 109.642 158.186 109.586 158.2C109.517 158.2 109.461 158.2 109.42 158.186Z" fill="#E8A779"/>
<path d="M108.63 158.684L110.015 158.808C110.015 158.808 109.544 159.196 109.17 159.182C108.81 159.168 108.63 158.684 108.63 158.684Z" fill="#FAFAFC"/>
<path d="M113.934 142.611C113.213 143.192 112.368 143.649 111.44 143.967C108.185 145.089 104.708 144.092 102.519 141.697C103.849 140.839 105.248 140.617 106.772 140.368C106.772 140.368 108.018 140.437 108.032 140.424C108.102 140.437 108.67 140.507 109.473 140.396C109.501 140.41 111.62 140.437 113.934 142.611Z" fill="black"/>
<path d="M111.273 135.345C111.273 135.345 111.508 134.971 111.702 135.123C112.201 135.497 111.716 135.996 111.384 136.107L111.273 135.345Z" fill="#FFD9BD"/>
<path d="M111.371 133.987C111.371 133.946 111.371 133.904 111.371 133.876C111.343 132.146 109.875 130.776 108.115 130.914C106.661 131.025 105.47 132.215 105.359 133.669C105.317 134.209 105.414 134.721 105.622 135.178C105.913 135.884 106.162 136.479 106.425 136.977C106.869 137.794 107.021 138.749 106.869 139.663L106.758 140.383C108.628 141.338 109.445 140.41 109.445 140.41L109.459 139.081C109.459 138.901 109.598 138.763 109.764 138.749C112.091 138.569 111.385 135.012 111.371 133.987Z" fill="#FFD9BD"/>
<path d="M110.788 135.082C110.788 134.957 110.691 134.86 110.567 134.86C110.442 134.86 110.345 134.957 110.345 135.082C110.345 135.207 110.442 135.304 110.567 135.304C110.691 135.304 110.788 135.193 110.788 135.082Z" fill="#060633"/>
<path d="M108.158 135.662C108.158 135.537 108.061 135.44 107.936 135.44C107.811 135.44 107.714 135.537 107.714 135.662C107.714 135.787 107.811 135.884 107.936 135.884C108.074 135.884 108.171 135.787 108.158 135.662Z" fill="#060633"/>
<path d="M107.284 135.179C107.256 135.179 107.229 135.179 107.201 135.151C107.118 135.11 107.09 134.999 107.145 134.93C107.284 134.694 107.713 134.32 108.337 134.639C108.42 134.68 108.448 134.777 108.42 134.86C108.378 134.943 108.281 134.971 108.198 134.93C107.686 134.68 107.436 135.082 107.423 135.096C107.395 135.151 107.339 135.179 107.284 135.179Z" fill="#060633"/>
<path d="M109.901 134.708C109.874 134.708 109.846 134.708 109.818 134.68C109.735 134.639 109.707 134.528 109.763 134.459C109.901 134.223 110.331 133.849 110.954 134.168C111.037 134.209 111.065 134.306 111.023 134.39C110.982 134.473 110.885 134.5 110.802 134.459C110.289 134.209 110.04 134.611 110.026 134.625C110.012 134.68 109.957 134.708 109.901 134.708Z" fill="#060633"/>
<path d="M110.044 137.409C109.49 137.686 108.825 137.339 108.825 137.339C108.797 137.326 108.797 137.298 108.811 137.27C108.825 137.242 108.853 137.242 108.881 137.256C108.922 137.284 109.836 137.755 110.349 137.035C110.363 137.007 110.391 137.007 110.418 137.021C110.446 137.035 110.446 137.062 110.432 137.09C110.307 137.242 110.183 137.339 110.044 137.409Z" fill="#E8A779"/>
<path d="M105.027 131.897C105.082 131.731 105.165 131.551 105.262 131.413C105.525 131.053 105.969 130.859 106.412 130.776C106.855 130.693 107.312 130.693 107.742 130.596C108.185 130.499 108.628 130.333 109.085 130.36C109.182 130.374 109.293 130.388 109.376 130.444C109.459 130.499 109.529 130.582 109.612 130.651C109.93 130.928 110.401 130.942 110.831 130.928C111.08 130.928 111.316 130.914 111.565 130.914C111.773 130.914 111.994 130.914 112.174 131.025C112.368 131.163 112.451 131.399 112.521 131.62C112.604 131.842 112.715 132.077 112.936 132.16C113.006 132.188 113.103 132.202 113.144 132.257C113.172 132.285 113.172 132.326 113.172 132.368C113.2 132.7 112.922 133.032 112.59 133.06C112.507 133.074 112.424 133.06 112.341 133.088C112.05 133.171 112.036 133.586 111.814 133.794C111.676 133.918 111.482 133.946 111.288 133.918C111.108 133.891 110.928 133.821 110.748 133.78C110.54 133.724 110.318 133.697 110.097 133.697C109.944 133.697 109.778 133.711 109.639 133.794C109.57 133.835 109.501 133.891 109.432 133.932C109.182 134.07 108.864 134.015 108.6 133.904C108.337 133.794 108.102 133.627 107.825 133.531C107.548 133.434 107.229 133.434 107.007 133.627C106.883 133.738 106.814 133.891 106.717 134.015C106.439 134.347 105.969 134.417 105.539 134.472C105.456 134.486 105.359 134.486 105.276 134.444C105.22 134.417 105.179 134.361 105.151 134.306C104.708 133.6 104.749 132.617 105.027 131.897Z" fill="#5A3D1A"/>
<path d="M105.095 134.209L105.926 136.188L106.467 136.064L106.771 133.434L105.095 134.209Z" fill="#5A3D1A"/>
<path d="M106.552 135.995C106.497 135.898 106.414 135.829 106.317 135.787C106.109 135.704 105.735 135.621 105.485 135.87C105.125 136.244 105.873 137.214 106.607 136.715C106.621 136.729 106.829 136.508 106.552 135.995Z" fill="#FFD9BD"/>
<path d="M109.752 136.603C109.489 136.741 109.239 136.603 109.239 136.589C109.212 136.575 109.212 136.547 109.225 136.52C109.239 136.492 109.267 136.492 109.295 136.506C109.308 136.52 109.572 136.672 109.835 136.423C109.876 136.381 109.904 136.353 109.904 136.326C109.904 136.298 109.863 136.242 109.807 136.187C109.683 136.049 109.461 135.827 109.392 135.301C109.392 135.273 109.405 135.245 109.433 135.245C109.461 135.245 109.489 135.259 109.489 135.287C109.558 135.772 109.752 135.979 109.876 136.118C109.946 136.187 110.001 136.242 110.001 136.326C110.001 136.381 109.973 136.423 109.904 136.492C109.849 136.533 109.793 136.575 109.752 136.603Z" fill="#E8A779"/>
<path d="M110.335 93.9798C110.169 94.3812 109.781 94.672 109.698 95.0872C109.629 95.4333 109.781 95.8071 109.726 96.1532C109.629 96.8176 108.881 97.136 108.257 97.3575C108.229 97.3714 108.188 97.3852 108.16 97.3991C107.551 97.6206 106.899 98.022 106.899 98.6588C106.899 98.8941 106.983 99.1295 106.872 99.3371C106.83 99.4202 106.747 99.4756 106.678 99.5309C106.013 100.002 105.237 100.292 104.42 100.362C103.727 100.417 103.02 100.32 102.342 100.458C101.981 100.541 101.635 100.68 101.275 100.832C99.8618 100.403 98.5596 99.614 97.5344 98.5204C96.7586 97.6898 96.1352 96.6792 95.7334 95.5302C95.6226 95.2118 95.5395 94.8934 95.4702 94.575C95.8027 94.0628 96.1352 93.5506 96.4677 93.0384C96.6477 92.7616 96.8278 92.4432 96.7447 92.1386C96.6893 91.9448 96.5369 91.7787 96.4677 91.5849C96.3153 91.1696 96.6062 90.7266 96.9387 90.4498C97.285 90.1867 97.7006 89.9929 97.9777 89.6607C98.0193 89.6053 98.0608 89.55 98.0747 89.4807C98.1024 89.37 98.047 89.2592 98.0331 89.1623C97.9638 88.6778 98.4764 88.3456 98.9336 88.2072C99.3908 88.0549 99.9311 87.9026 100.07 87.4319C100.111 87.2797 100.111 87.0859 100.222 86.9613C100.319 86.8505 100.471 86.8228 100.61 86.809C101.095 86.7259 101.566 86.6013 102.051 86.6706C102.619 86.7536 103.09 86.892 103.672 86.7951C103.893 86.7536 104.101 86.6982 104.323 86.6982C105.445 86.7398 105.957 88.4286 107.08 88.5394C107.551 88.5809 108.063 88.3179 108.507 88.5256C108.867 88.7055 109.019 89.1347 109.047 89.5361C109.075 89.9376 109.005 90.339 109.088 90.7266C109.199 91.3219 109.629 91.7926 109.961 92.2909C110.28 92.7893 110.557 93.4261 110.335 93.9798Z" fill="#FFBE17"/>
<path d="M109.863 98.4376C108.948 99.4481 107.771 100.251 106.385 100.722C104.668 101.317 102.88 101.317 101.26 100.832C99.8464 100.403 98.5442 99.6143 97.519 98.5206C98.0732 97.9392 99.32 97.1086 102.021 96.7764C102.382 96.7349 102.77 96.6933 103.185 96.6657C103.67 96.638 104.113 96.6241 104.543 96.6518C106.025 96.7072 107.217 97.0256 108.117 97.4132C108.893 97.7316 109.461 98.1053 109.863 98.4376Z" fill="black"/>
<path d="M106.178 91.8617C106.178 91.8617 106.427 91.4876 106.621 91.64C107.12 92.0279 106.607 92.5266 106.275 92.6374L106.178 91.8617Z" fill="#FFD9BD"/>
<path d="M106.303 90.4917C106.303 90.4502 106.303 90.4086 106.303 90.3671C106.331 88.609 104.863 87.1832 103.089 87.2801C101.607 87.3631 100.374 88.5259 100.222 89.9933C100.167 90.5471 100.25 91.0593 100.457 91.5299C100.79 92.4159 101.081 93.1357 101.413 93.7033C101.967 94.6585 102.203 95.7798 102.037 96.8734C102.023 96.9565 102.064 97.0395 102.147 97.0811C103.297 97.6348 104.018 97.4133 104.35 97.2195C104.489 97.1364 104.572 96.998 104.572 96.8319L104.585 95.6137C104.585 95.4337 104.724 95.2676 104.904 95.2261C106.857 94.8246 106.289 91.4884 106.303 90.4917Z" fill="#FFD9BD"/>
<path d="M105.196 93.6069C105.196 93.6069 104.947 93.4684 104.822 93.5238C104.697 93.5792 104.642 93.7455 104.642 93.7455C104.642 93.7455 104.545 93.5931 104.379 93.6208C104.212 93.6346 103.783 93.8286 103.783 93.8286C103.783 93.8286 104.296 94.4519 104.767 94.2719C105.238 94.0779 105.196 93.6208 105.196 93.6208V93.6069Z" fill="#FF9D57"/>
<path d="M103.283 92.0432C103.283 91.877 103.145 91.7246 102.979 91.7246C102.812 91.7246 102.66 91.8631 102.66 92.0294C102.66 92.1956 102.799 92.348 102.965 92.348C103.145 92.348 103.283 92.2095 103.283 92.0432Z" fill="#240D39"/>
<path d="M105.748 91.6819C105.748 91.5157 105.61 91.3633 105.443 91.3633C105.277 91.3633 105.125 91.5018 105.125 91.668C105.125 91.8343 105.263 91.9866 105.43 91.9866C105.61 91.9866 105.748 91.8481 105.748 91.6819Z" fill="#240D39"/>
<path d="M104.778 93.938C104.238 94.132 103.642 93.7995 103.642 93.7995C103.629 93.7857 103.615 93.7718 103.629 93.7441C103.642 93.7303 103.656 93.7164 103.684 93.7302C103.726 93.758 104.654 94.2705 105.194 93.5363C105.208 93.5225 105.235 93.5225 105.249 93.5225C105.263 93.5363 105.263 93.564 105.263 93.5779C105.111 93.7718 104.945 93.8826 104.778 93.938Z" fill="#240D39"/>
<path d="M102.298 91.4049C102.27 91.4049 102.243 91.3772 102.215 91.3495C102.187 91.2941 102.201 91.2249 102.256 91.1971C102.27 91.1833 102.644 90.9755 103.129 91.0586C103.185 91.0725 103.226 91.1279 103.212 91.1833C103.198 91.2387 103.143 91.2803 103.088 91.2664C102.686 91.1833 102.381 91.3634 102.381 91.3772C102.353 91.4049 102.326 91.4188 102.298 91.4049Z" fill="#240D39"/>
<path d="M105.056 91.0446C105.028 91.0446 105 91.0169 104.973 90.9892C104.945 90.9338 104.959 90.8645 105.014 90.8368C105.028 90.8229 105.402 90.6152 105.887 90.6983C105.942 90.7121 105.984 90.7675 105.97 90.8229C105.956 90.8783 105.901 90.9199 105.845 90.9061C105.444 90.8229 105.139 91.0169 105.139 91.0169C105.111 91.0446 105.083 91.0584 105.056 91.0446Z" fill="#240D39"/>
<path d="M104.517 93.0129C104.406 92.999 104.337 92.9575 104.337 92.9575C104.31 92.9436 104.31 92.9021 104.323 92.8882C104.337 92.8605 104.379 92.8605 104.393 92.8744C104.406 92.8744 104.642 93.0268 104.877 92.8051C104.919 92.7636 104.933 92.7358 104.933 92.722C104.933 92.6943 104.891 92.6527 104.85 92.5973C104.739 92.4727 104.531 92.251 104.476 91.78C104.476 91.7523 104.49 91.7246 104.517 91.7246C104.545 91.7246 104.573 91.7385 104.573 91.7662C104.628 92.2095 104.808 92.4034 104.919 92.5281C104.988 92.5973 105.03 92.6527 105.03 92.722C105.03 92.7774 105.002 92.819 104.933 92.8744C104.808 93.0129 104.642 93.0268 104.517 93.0129Z" fill="#E8A779"/>
<path d="M101.439 92.2208C101.481 92.0685 101.453 91.9024 101.494 91.7501C101.605 91.3625 102.118 91.2518 102.395 90.9749C102.755 90.615 102.769 89.9782 103.212 89.729C103.406 89.6183 103.655 89.6044 103.808 89.4383C103.919 89.3137 103.933 89.1476 103.974 88.9953C104.016 88.843 104.126 88.6769 104.293 88.6769C104.362 88.6769 104.431 88.7184 104.5 88.76C104.902 89.0368 105.027 89.6459 105.484 89.8259C105.623 89.8813 105.789 89.8951 105.941 89.9366C106.371 90.0335 106.731 90.3658 106.869 90.7811C107.146 90.5319 107.132 90.0751 106.966 89.7428C106.8 89.4106 106.509 89.1476 106.287 88.8569C106.066 88.5523 105.927 88.2062 105.72 87.9017C105.512 87.5971 105.221 87.3064 104.847 87.2511C104.542 87.1957 104.237 87.3064 103.919 87.3064C103.642 87.3064 103.392 87.2234 103.115 87.1818C102.34 87.0572 101.508 87.348 100.968 87.9155C100.774 88.1232 100.622 88.3585 100.469 88.58C100.123 89.0922 99.7906 89.6182 99.4443 90.1304C99.2781 90.3796 99.1119 90.6427 99.0703 90.9334C99.001 91.4317 99.3058 91.9024 99.6106 92.3177C99.7491 92.5253 99.9292 92.733 100.179 92.7607C100.636 92.7883 101.287 92.7745 101.439 92.2208Z" fill="#FFBE17"/>
<path d="M101.37 92.4037C101.329 92.3067 101.232 92.2236 101.135 92.1821C100.927 92.0989 100.553 92.002 100.29 92.2513C99.916 92.6253 100.65 93.6227 101.398 93.1379C101.412 93.1379 101.634 92.9301 101.37 92.4037Z" fill="#FFD9BD"/>
<path d="M152.464 84.6501L118.342 88.6369C118.051 88.6646 117.788 88.457 117.76 88.1663L117.732 87.9448C117.705 87.6541 117.913 87.391 118.203 87.3634L152.325 83.3765C152.616 83.3488 152.879 83.5565 152.907 83.8472L152.935 84.0687C152.962 84.3455 152.755 84.6224 152.464 84.6501Z" fill="#FFBE17"/>
<path d="M152.782 87.321L118.66 91.3078C118.369 91.3355 118.106 91.1279 118.078 90.8372L118.051 90.6157C118.023 90.325 118.231 90.0619 118.522 90.0343L152.643 86.0474C152.934 86.0197 153.198 86.2274 153.225 86.5181L153.253 86.7396C153.281 87.0303 153.073 87.2933 152.782 87.321Z" fill="#FFBE17"/>
<path d="M134.884 92.2236L119.105 94.0648C118.786 94.1063 118.495 93.871 118.454 93.5526L118.44 93.4557C118.398 93.1373 118.634 92.8466 118.952 92.8051L134.732 90.9501C135.05 90.9085 135.341 91.1439 135.383 91.4623L135.397 91.5592C135.438 91.8914 135.203 92.1821 134.884 92.2236Z" fill="#FFBE17"/>
<path d="M157.438 112.531L120.297 116.822C119.327 116.933 118.44 116.241 118.329 115.272L117.29 106.274C117.18 105.305 117.872 104.419 118.842 104.308L155.984 100.017C156.954 99.9058 157.84 100.598 157.951 101.567L158.99 110.565C159.101 111.534 158.394 112.42 157.438 112.531Z" fill="#FFEBB7"/>
<path d="M120.892 119.534L121.834 116.627L125.062 116.267L120.892 119.534Z" fill="#FFEBB7"/>
<path d="M154.555 104.307L120.434 108.294C120.143 108.322 119.88 108.114 119.852 107.823L119.824 107.602C119.797 107.311 120.004 107.048 120.295 107.021L154.417 103.034C154.708 103.006 154.971 103.214 154.999 103.504L155.026 103.726C155.054 104.003 154.846 104.28 154.555 104.307Z" fill="#FFBE17"/>
<path d="M154.874 106.976L120.752 110.963C120.461 110.991 120.198 110.783 120.17 110.492L120.143 110.271C120.115 109.98 120.323 109.717 120.614 109.69L154.735 105.703C155.026 105.675 155.289 105.883 155.317 106.173L155.345 106.395C155.373 106.686 155.165 106.949 154.874 106.976Z" fill="#FFBE17"/>
<path d="M136.976 111.878L121.197 113.719C120.878 113.761 120.587 113.525 120.545 113.207L120.532 113.096C120.49 112.778 120.726 112.487 121.044 112.446L136.824 110.604C137.142 110.563 137.433 110.798 137.475 111.117L137.489 111.213C137.53 111.546 137.295 111.836 136.976 111.878Z" fill="#FFBE17"/>
<path d="M160.167 135.067L123.025 139.358C122.055 139.469 121.169 138.777 121.058 137.808L120.019 128.81C119.908 127.841 120.601 126.955 121.571 126.844L158.712 122.553C159.682 122.442 160.569 123.134 160.68 124.103L161.719 133.101C161.829 134.07 161.137 134.956 160.167 135.067Z" fill="#FFEBB7"/>
<path d="M123.621 142.073L124.563 139.179L127.79 138.806L123.621 142.073Z" fill="#FFEBB7"/>
<path d="M157.298 126.858L123.176 130.845C122.885 130.873 122.622 130.665 122.594 130.374L122.566 130.153C122.539 129.862 122.747 129.599 123.037 129.571L157.159 125.585C157.45 125.557 157.713 125.764 157.741 126.055L157.769 126.277C157.796 126.554 157.589 126.817 157.298 126.858Z" fill="#FFBE17"/>
<path d="M157.602 129.53L123.481 133.517C123.19 133.544 122.927 133.337 122.899 133.046L122.871 132.825C122.843 132.534 123.051 132.271 123.342 132.243L157.464 128.256C157.755 128.229 158.018 128.436 158.046 128.727L158.073 128.949C158.101 129.225 157.893 129.488 157.602 129.53Z" fill="#FFBE17"/>
<path d="M139.704 134.415L123.925 136.256C123.606 136.298 123.316 136.062 123.274 135.744L123.26 135.647C123.219 135.329 123.454 135.038 123.773 134.996L139.552 133.155C139.871 133.114 140.162 133.349 140.203 133.667L140.217 133.764C140.259 134.083 140.023 134.373 139.704 134.415Z" fill="#FFBE17"/>
<path d="M162.479 155.46L125.338 159.751C124.368 159.862 123.481 159.17 123.37 158.2L122.331 149.202C122.221 148.233 122.913 147.347 123.883 147.237L161.025 142.945C161.995 142.834 162.881 143.527 162.992 144.496L164.031 153.494C164.156 154.477 163.449 155.349 162.479 155.46Z" fill="#FFEBB7"/>
<path d="M125.947 162.463L126.875 159.57L130.116 159.196L125.947 162.463Z" fill="#FFEBB7"/>
<path d="M159.61 147.249L125.488 151.236C125.198 151.263 124.934 151.056 124.907 150.765L124.879 150.543C124.851 150.253 125.059 149.99 125.35 149.962L159.472 145.975C159.762 145.947 160.026 146.155 160.053 146.446L160.081 146.667C160.109 146.944 159.901 147.207 159.61 147.249Z" fill="#FFBE17"/>
<path d="M159.928 149.921L125.807 153.907C125.516 153.935 125.253 153.727 125.225 153.437L125.197 153.215C125.17 152.925 125.377 152.662 125.668 152.634L159.79 148.647C160.081 148.619 160.344 148.827 160.372 149.118L160.4 149.339C160.427 149.616 160.219 149.893 159.928 149.921Z" fill="#FFBE17"/>
<path d="M142.031 154.809L126.251 156.651C125.933 156.692 125.642 156.457 125.6 156.138L125.586 156.041C125.545 155.723 125.78 155.432 126.099 155.391L141.878 153.55C142.197 153.508 142.488 153.743 142.529 154.062L142.543 154.159C142.585 154.477 142.349 154.782 142.031 154.809Z" fill="#FFBE17"/>
<path d="M159.06 70.9864L89.0155 78.5725L88.5445 74.3503C88.0457 69.8928 91.2736 65.8783 95.7345 65.3799L151.357 59.2474C154.848 58.8597 158.007 61.3792 158.395 64.8816L159.06 70.9864Z" fill="#FFBE17"/>
<path d="M170.917 169.482L167.439 138.003L164.558 111.922L159.39 65.1734C158.919 60.9236 155.096 57.8504 150.843 58.321L94.2641 64.5643C90.011 65.035 86.9355 68.8557 87.4065 73.1056L90.5236 101.374L92.4077 118.318L92.5046 119.148L94.0147 132.784L98.9466 177.428C99.4176 181.678 103.241 184.751 107.494 184.281L117.76 183.146L151.84 179.394L151.992 179.38L164.073 178.051C168.326 177.567 171.388 173.732 170.917 169.482ZM152.325 177.345L116.818 181.263L107.273 182.315C106.829 182.37 106.386 182.356 105.97 182.315C103.754 182.066 101.87 180.543 101.163 178.425C101.039 178.037 100.942 177.636 100.9 177.207L100.748 175.822L96.1205 133.933L94.5273 119.605V119.55L92.6293 102.315L89.9971 78.4768L89.3876 72.898C89.0412 69.7279 91.3271 66.8623 94.4996 66.5162L151.078 60.2729C154.251 59.9269 157.118 62.211 157.465 65.3811L158.102 71.0845L162.438 110.316L165.389 137.075L168.838 168.306L168.991 169.69C169.337 172.86 167.051 175.726 163.879 176.072L152.325 177.345Z" fill="#050521"/>
<path d="M176.222 141.865C176.222 141.865 155.164 132.673 142.322 126.527C141.407 126.084 137.127 125.738 134.522 125.585C124.603 125.045 116.789 125.198 116.72 126.042C115.875 136.12 132.721 137.463 135.437 138.999C145.661 144.772 160.997 157.812 158.406 163.447C157.45 165.523 155.94 167.572 155.206 169.275C148.653 184.433 151.521 186.053 168.09 192.144C182.234 197.349 185.573 179.906 185.573 179.906L180.807 164.859L176.222 141.865Z" fill="#FFD9BD"/>
<path d="M124.714 130.569L117.137 128.465C116.305 128.23 115.64 127.302 116.042 126.541C116.679 125.336 117.067 124.34 118.757 124.492L127.027 125.309C127.858 125.544 127.595 126.112 127.36 126.942L126.653 129.489C126.418 130.306 125.545 130.805 124.714 130.569Z" fill="#FFE6D5"/>
<path d="M154.748 196.103C154.748 196.103 148.044 193.14 151.839 179.38" stroke="#F5C39F" stroke-width="1.9124" stroke-miterlimit="10"/>
</svg>
